<svg width="136" height="67" viewBox="0 0 136 67" fill="none" xmlns="http://www.w3.org/2000/svg">
<path d="M34.5299 3H3V63H34.5299M101.47 3H133V63H101.47" stroke="#043535" stroke-width="6"/>
<path d="M15.6875 25.0713V16.2031H18.3154V25.0713C18.3154 25.9268 18.1279 26.6621 17.7529 27.2773C17.3779 27.8867 16.8652 28.3555 16.2148 28.6836C15.5703 29.0117 14.8438 29.1758 14.0352 29.1758C13.1973 29.1758 12.4561 29.0352 11.8115 28.7539C11.167 28.4727 10.6602 28.042 10.291 27.4619C9.92188 26.876 9.7373 26.1348 9.7373 25.2383H12.3828C12.3828 25.707 12.4473 26.0791 12.5762 26.3545C12.7109 26.6299 12.9014 26.8262 13.1475 26.9434C13.3936 27.0605 13.6895 27.1191 14.0352 27.1191C14.3691 27.1191 14.6592 27.04 14.9053 26.8818C15.1514 26.7236 15.3418 26.4922 15.4766 26.1875C15.6172 25.8828 15.6875 25.5107 15.6875 25.0713ZM24.7842 29.1758C24.0459 29.1758 23.3838 29.0586 22.7979 28.8242C22.2119 28.584 21.7139 28.2529 21.3037 27.8311C20.8994 27.4092 20.5889 26.9199 20.3721 26.3633C20.1553 25.8008 20.0469 25.2031 20.0469 24.5703V24.2188C20.0469 23.498 20.1494 22.8389 20.3545 22.2412C20.5596 21.6436 20.8525 21.125 21.2334 20.6855C21.6201 20.2461 22.0889 19.9092 22.6396 19.6748C23.1904 19.4346 23.8115 19.3145 24.5029 19.3145C25.1768 19.3145 25.7744 19.4258 26.2959 19.6484C26.8174 19.8711 27.2539 20.1875 27.6055 20.5977C27.9629 21.0078 28.2324 21.5 28.4141 22.0742C28.5957 22.6426 28.6865 23.2754 28.6865 23.9727V25.0273H21.1279V23.3398H26.1992V23.1465C26.1992 22.7949 26.1348 22.4814 26.0059 22.2061C25.8828 21.9248 25.6953 21.7021 25.4434 21.5381C25.1914 21.374 24.8691 21.292 24.4766 21.292C24.1426 21.292 23.8555 21.3652 23.6152 21.5117C23.375 21.6582 23.1787 21.8633 23.0264 22.127C22.8799 22.3906 22.7686 22.7012 22.6924 23.0586C22.6221 23.4102 22.5869 23.7969 22.5869 24.2188V24.5703C22.5869 24.9512 22.6396 25.3027 22.7451 25.625C22.8564 25.9473 23.0117 26.2256 23.2109 26.46C23.416 26.6943 23.6621 26.876 23.9492 27.0049C24.2422 27.1338 24.5732 27.1982 24.9424 27.1982C25.3994 27.1982 25.8242 27.1104 26.2168 26.9346C26.6152 26.7529 26.958 26.4805 27.2451 26.1172L28.4756 27.4531C28.2764 27.7402 28.0039 28.0156 27.6582 28.2793C27.3184 28.543 26.9082 28.7598 26.4277 28.9297C25.9473 29.0938 25.3994 29.1758 24.7842 29.1758ZM32.6064 21.5205V29H30.0752V19.4902H32.4482L32.6064 21.5205ZM32.2373 23.9111H31.5518C31.5518 23.208 31.6426 22.5752 31.8242 22.0127C32.0059 21.4443 32.2607 20.9609 32.5889 20.5625C32.917 20.1582 33.3066 19.8506 33.7578 19.6396C34.2148 19.4229 34.7246 19.3145 35.2871 19.3145C35.7324 19.3145 36.1396 19.3789 36.5088 19.5078C36.8779 19.6367 37.1943 19.8418 37.458 20.123C37.7275 20.4043 37.9326 20.7764 38.0732 21.2393C38.2197 21.7021 38.293 22.2676 38.293 22.9355V29H35.7441V22.9268C35.7441 22.5049 35.6855 22.1768 35.5684 21.9424C35.4512 21.708 35.2783 21.5439 35.0498 21.4502C34.8271 21.3506 34.5518 21.3008 34.2236 21.3008C33.8838 21.3008 33.5879 21.3682 33.3359 21.5029C33.0898 21.6377 32.8848 21.8252 32.7207 22.0654C32.5625 22.2998 32.4424 22.5752 32.3604 22.8916C32.2783 23.208 32.2373 23.5479 32.2373 23.9111ZM42.8896 19.4902V29H40.3496V19.4902H42.8896ZM40.1914 17.0117C40.1914 16.6426 40.3203 16.3379 40.5781 16.0977C40.8359 15.8574 41.1816 15.7373 41.6152 15.7373C42.043 15.7373 42.3857 15.8574 42.6436 16.0977C42.9072 16.3379 43.0391 16.6426 43.0391 17.0117C43.0391 17.3809 42.9072 17.6855 42.6436 17.9258C42.3857 18.166 42.043 18.2861 41.6152 18.2861C41.1816 18.2861 40.8359 18.166 40.5781 17.9258C40.3203 17.6855 40.1914 17.3809 40.1914 17.0117ZM48.207 29H45.6582V18.6465C45.6582 17.9258 45.7988 17.3193 46.0801 16.8271C46.3672 16.3291 46.7686 15.9541 47.2842 15.7021C47.8057 15.4443 48.4238 15.3154 49.1387 15.3154C49.373 15.3154 49.5986 15.333 49.8154 15.3682C50.0322 15.3975 50.2432 15.4355 50.4482 15.4824L50.4219 17.3896C50.3105 17.3604 50.1934 17.3398 50.0703 17.3281C49.9473 17.3164 49.8037 17.3105 49.6396 17.3105C49.335 17.3105 49.0742 17.3633 48.8574 17.4688C48.6465 17.5684 48.4854 17.7178 48.374 17.917C48.2627 18.1162 48.207 18.3594 48.207 18.6465V29ZM50.1055 19.4902V21.2832H44.2432V19.4902H50.1055ZM61.0566 24.4385H57.7959V22.3818H61.0566C61.5605 22.3818 61.9707 22.2998 62.2871 22.1357C62.6035 21.9658 62.835 21.7314 62.9814 21.4326C63.1279 21.1338 63.2012 20.7969 63.2012 20.4219C63.2012 20.041 63.1279 19.6865 62.9814 19.3584C62.835 19.0303 62.6035 18.7666 62.2871 18.5674C61.9707 18.3682 61.5605 18.2686 61.0566 18.2686H58.71V29H56.0732V16.2031H61.0566C62.0586 16.2031 62.917 16.3848 63.6318 16.748C64.3525 17.1055 64.9033 17.6006 65.2842 18.2334C65.665 18.8662 65.8555 19.5898 65.8555 20.4043C65.8555 21.2305 65.665 21.9453 65.2842 22.5488C64.9033 23.1523 64.3525 23.6182 63.6318 23.9463C62.917 24.2744 62.0586 24.4385 61.0566 24.4385ZM72.5439 26.8555V22.6191C72.5439 22.3145 72.4941 22.0537 72.3945 21.8369C72.2949 21.6143 72.1396 21.4414 71.9287 21.3184C71.7236 21.1953 71.457 21.1338 71.1289 21.1338C70.8477 21.1338 70.6045 21.1836 70.3994 21.2832C70.1943 21.377 70.0361 21.5146 69.9248 21.6963C69.8135 21.8721 69.7578 22.0801 69.7578 22.3203H67.2266C67.2266 21.916 67.3203 21.5322 67.5078 21.1689C67.6953 20.8057 67.9678 20.4863 68.3252 20.2109C68.6826 19.9297 69.1074 19.71 69.5996 19.5518C70.0977 19.3936 70.6543 19.3145 71.2695 19.3145C72.0078 19.3145 72.6641 19.4375 73.2383 19.6836C73.8125 19.9297 74.2637 20.2988 74.5918 20.791C74.9258 21.2832 75.0928 21.8984 75.0928 22.6367V26.7061C75.0928 27.2275 75.125 27.6553 75.1895 27.9893C75.2539 28.3174 75.3477 28.6045 75.4707 28.8506V29H72.9131C72.79 28.7422 72.6963 28.4199 72.6318 28.0332C72.5732 27.6406 72.5439 27.248 72.5439 26.8555ZM72.8779 23.208L72.8955 24.6406H71.4805C71.1465 24.6406 70.8564 24.6787 70.6104 24.7549C70.3643 24.8311 70.1621 24.9395 70.0039 25.0801C69.8457 25.2148 69.7285 25.373 69.6523 25.5547C69.582 25.7363 69.5469 25.9355 69.5469 26.1523C69.5469 26.3691 69.5967 26.5654 69.6963 26.7412C69.7959 26.9111 69.9395 27.0459 70.127 27.1455C70.3145 27.2393 70.5342 27.2861 70.7861 27.2861C71.167 27.2861 71.498 27.21 71.7793 27.0576C72.0605 26.9053 72.2773 26.7178 72.4297 26.4951C72.5879 26.2725 72.6699 26.0615 72.6758 25.8623L73.3438 26.9346C73.25 27.1748 73.1211 27.4238 72.957 27.6816C72.7988 27.9395 72.5967 28.1826 72.3506 28.4111C72.1045 28.6338 71.8086 28.8184 71.4629 28.9648C71.1172 29.1055 70.707 29.1758 70.2324 29.1758C69.6289 29.1758 69.0811 29.0557 68.5889 28.8154C68.1025 28.5693 67.7158 28.2324 67.4287 27.8047C67.1475 27.3711 67.0068 26.8789 67.0068 26.3281C67.0068 25.8301 67.1006 25.3877 67.2881 25.001C67.4756 24.6143 67.751 24.2891 68.1143 24.0254C68.4834 23.7559 68.9434 23.5537 69.4941 23.4189C70.0449 23.2783 70.6836 23.208 71.4102 23.208H72.8779ZM79.7158 19.4902V29H77.1758V19.4902H79.7158ZM77.0176 17.0117C77.0176 16.6426 77.1465 16.3379 77.4043 16.0977C77.6621 15.8574 78.0078 15.7373 78.4414 15.7373C78.8691 15.7373 79.2119 15.8574 79.4697 16.0977C79.7334 16.3379 79.8652 16.6426 79.8652 17.0117C79.8652 17.3809 79.7334 17.6855 79.4697 17.9258C79.2119 18.166 78.8691 18.2861 78.4414 18.2861C78.0078 18.2861 77.6621 18.166 77.4043 17.9258C77.1465 17.6855 77.0176 17.3809 77.0176 17.0117ZM84.2861 21.5205V29H81.7549V19.4902H84.1279L84.2861 21.5205ZM83.917 23.9111H83.2314C83.2314 23.208 83.3223 22.5752 83.5039 22.0127C83.6855 21.4443 83.9404 20.9609 84.2686 20.5625C84.5967 20.1582 84.9863 19.8506 85.4375 19.6396C85.8945 19.4229 86.4043 19.3145 86.9668 19.3145C87.4121 19.3145 87.8193 19.3789 88.1885 19.5078C88.5576 19.6367 88.874 19.8418 89.1377 20.123C89.4072 20.4043 89.6123 20.7764 89.7529 21.2393C89.8994 21.7021 89.9727 22.2676 89.9727 22.9355V29H87.4238V22.9268C87.4238 22.5049 87.3652 22.1768 87.248 21.9424C87.1309 21.708 86.958 21.5439 86.7295 21.4502C86.5068 21.3506 86.2314 21.3008 85.9033 21.3008C85.5635 21.3008 85.2676 21.3682 85.0156 21.5029C84.7695 21.6377 84.5645 21.8252 84.4004 22.0654C84.2422 22.2998 84.1221 22.5752 84.04 22.8916C83.958 23.208 83.917 23.5479 83.917 23.9111ZM96.5557 19.4902V21.2832H91.0186V19.4902H96.5557ZM92.3896 17.1436H94.9209V26.1348C94.9209 26.4102 94.9561 26.6211 95.0264 26.7676C95.1025 26.9141 95.2139 27.0166 95.3604 27.0752C95.5068 27.1279 95.6914 27.1543 95.9141 27.1543C96.0723 27.1543 96.2129 27.1484 96.3359 27.1367C96.4648 27.1191 96.5732 27.1016 96.6611 27.084L96.6699 28.9473C96.4531 29.0176 96.2188 29.0732 95.9668 29.1143C95.7148 29.1553 95.4365 29.1758 95.1318 29.1758C94.5752 29.1758 94.0889 29.085 93.6729 28.9033C93.2627 28.7158 92.9463 28.417 92.7236 28.0068C92.501 27.5967 92.3896 27.0576 92.3896 26.3896V17.1436ZM100.669 19.4902V29H98.1289V19.4902H100.669ZM97.9707 17.0117C97.9707 16.6426 98.0996 16.3379 98.3574 16.0977C98.6152 15.8574 98.9609 15.7373 99.3945 15.7373C99.8223 15.7373 100.165 15.8574 100.423 16.0977C100.687 16.3379 100.818 16.6426 100.818 17.0117C100.818 17.3809 100.687 17.6855 100.423 17.9258C100.165 18.166 99.8223 18.2861 99.3945 18.2861C98.9609 18.2861 98.6152 18.166 98.3574 17.9258C98.0996 17.6855 97.9707 17.3809 97.9707 17.0117ZM105.239 21.5205V29H102.708V19.4902H105.081L105.239 21.5205ZM104.87 23.9111H104.185C104.185 23.208 104.275 22.5752 104.457 22.0127C104.639 21.4443 104.894 20.9609 105.222 20.5625C105.55 20.1582 105.939 19.8506 106.391 19.6396C106.848 19.4229 107.357 19.3145 107.92 19.3145C108.365 19.3145 108.772 19.3789 109.142 19.5078C109.511 19.6367 109.827 19.8418 110.091 20.123C110.36 20.4043 110.565 20.7764 110.706 21.2393C110.853 21.7021 110.926 22.2676 110.926 22.9355V29H108.377V22.9268C108.377 22.5049 108.318 22.1768 108.201 21.9424C108.084 21.708 107.911 21.5439 107.683 21.4502C107.46 21.3506 107.185 21.3008 106.856 21.3008C106.517 21.3008 106.221 21.3682 105.969 21.5029C105.723 21.6377 105.518 21.8252 105.354 22.0654C105.195 22.2998 105.075 22.5752 104.993 22.8916C104.911 23.208 104.87 23.5479 104.87 23.9111ZM118.871 19.4902H121.165V28.6836C121.165 29.5508 120.972 30.2861 120.585 30.8896C120.204 31.499 119.671 31.959 118.985 32.2695C118.3 32.5859 117.503 32.7441 116.595 32.7441C116.196 32.7441 115.774 32.6914 115.329 32.5859C114.89 32.4805 114.468 32.3164 114.063 32.0938C113.665 31.8711 113.331 31.5898 113.062 31.25L114.178 29.7559C114.471 30.0957 114.811 30.3594 115.197 30.5469C115.584 30.7402 116.012 30.8369 116.48 30.8369C116.938 30.8369 117.324 30.752 117.641 30.582C117.957 30.418 118.2 30.1748 118.37 29.8525C118.54 29.5361 118.625 29.1523 118.625 28.7012V21.6875L118.871 19.4902ZM112.473 24.3594V24.1748C112.473 23.4482 112.561 22.7891 112.736 22.1973C112.918 21.5996 113.173 21.0869 113.501 20.6592C113.835 20.2314 114.239 19.9004 114.714 19.666C115.188 19.4316 115.725 19.3145 116.322 19.3145C116.955 19.3145 117.485 19.4316 117.913 19.666C118.341 19.9004 118.692 20.2344 118.968 20.668C119.243 21.0957 119.457 21.6025 119.609 22.1885C119.768 22.7686 119.891 23.4043 119.979 24.0957V24.5C119.891 25.1621 119.759 25.7773 119.583 26.3457C119.407 26.9141 119.176 27.4121 118.889 27.8398C118.602 28.2617 118.244 28.5898 117.816 28.8242C117.395 29.0586 116.891 29.1758 116.305 29.1758C115.719 29.1758 115.188 29.0557 114.714 28.8154C114.245 28.5752 113.844 28.2383 113.51 27.8047C113.176 27.3711 112.918 26.8613 112.736 26.2754C112.561 25.6895 112.473 25.0508 112.473 24.3594ZM115.004 24.1748V24.3594C115.004 24.752 115.042 25.1182 115.118 25.458C115.194 25.7979 115.312 26.0996 115.47 26.3633C115.634 26.6211 115.836 26.8232 116.076 26.9697C116.322 27.1104 116.612 27.1807 116.946 27.1807C117.409 27.1807 117.787 27.084 118.08 26.8906C118.373 26.6914 118.593 26.4189 118.739 26.0732C118.886 25.7275 118.971 25.3291 118.994 24.8779V23.7266C118.982 23.3574 118.933 23.0264 118.845 22.7334C118.757 22.4346 118.634 22.1797 118.476 21.9688C118.317 21.7578 118.112 21.5938 117.86 21.4766C117.608 21.3594 117.31 21.3008 116.964 21.3008C116.63 21.3008 116.34 21.377 116.094 21.5293C115.854 21.6758 115.651 21.8779 115.487 22.1357C115.329 22.3936 115.209 22.6982 115.127 23.0498C115.045 23.3955 115.004 23.7705 115.004 24.1748ZM46.9766 47.9434V50H40.165V47.9434H46.9766ZM41.0264 37.2031V50H38.3896V37.2031H41.0264ZM46.0889 42.415V44.4189H40.165V42.415H46.0889ZM46.9678 37.2031V39.2686H40.165V37.2031H46.9678ZM50.3955 40.4902L51.9688 43.3818L53.5859 40.4902H56.2842L53.5947 45.1396L56.4072 50H53.7002L51.9863 46.9414L50.2725 50H47.5654L50.3779 45.1396L47.6885 40.4902H50.3955ZM60.0459 42.3184V53.6562H57.5146V40.4902H59.8613L60.0459 42.3184ZM66.0664 45.1396V45.3242C66.0664 46.0156 65.9844 46.6572 65.8203 47.249C65.6621 47.8408 65.4277 48.3564 65.1172 48.7959C64.8066 49.2295 64.4199 49.5693 63.957 49.8154C63.5 50.0557 62.9727 50.1758 62.375 50.1758C61.7949 50.1758 61.291 50.0586 60.8633 49.8242C60.4355 49.5898 60.0752 49.2617 59.7822 48.8398C59.4951 48.4121 59.2637 47.917 59.0879 47.3545C58.9121 46.792 58.7773 46.1885 58.6836 45.5439V45.0605C58.7773 44.3691 58.9121 43.7363 59.0879 43.1621C59.2637 42.582 59.4951 42.0811 59.7822 41.6592C60.0752 41.2314 60.4326 40.9004 60.8545 40.666C61.2822 40.4316 61.7832 40.3145 62.3574 40.3145C62.9609 40.3145 63.4912 40.4287 63.9482 40.6572C64.4111 40.8857 64.7979 41.2139 65.1084 41.6416C65.4248 42.0693 65.6621 42.5791 65.8203 43.1709C65.9844 43.7627 66.0664 44.4189 66.0664 45.1396ZM63.5264 45.3242V45.1396C63.5264 44.7354 63.4912 44.3633 63.4209 44.0234C63.3564 43.6777 63.251 43.376 63.1045 43.1182C62.9639 42.8604 62.7764 42.6611 62.542 42.5205C62.3135 42.374 62.0352 42.3008 61.707 42.3008C61.3613 42.3008 61.0654 42.3564 60.8193 42.4678C60.5791 42.5791 60.3828 42.7402 60.2305 42.9512C60.0781 43.1621 59.9639 43.4141 59.8877 43.707C59.8115 44 59.7646 44.3311 59.7471 44.7002V45.9219C59.7764 46.3555 59.8584 46.7451 59.9932 47.0908C60.1279 47.4307 60.3359 47.7002 60.6172 47.8994C60.8984 48.0986 61.2676 48.1982 61.7246 48.1982C62.0586 48.1982 62.3398 48.125 62.5684 47.9785C62.7969 47.8262 62.9814 47.6182 63.1221 47.3545C63.2686 47.0908 63.3711 46.7861 63.4297 46.4404C63.4941 46.0947 63.5264 45.7227 63.5264 45.3242ZM72.0166 50.1758C71.2783 50.1758 70.6162 50.0586 70.0303 49.8242C69.4443 49.584 68.9463 49.2529 68.5361 48.8311C68.1318 48.4092 67.8213 47.9199 67.6045 47.3633C67.3877 46.8008 67.2793 46.2031 67.2793 45.5703V45.2188C67.2793 44.498 67.3818 43.8389 67.5869 43.2412C67.792 42.6436 68.085 42.125 68.4658 41.6855C68.8525 41.2461 69.3213 40.9092 69.8721 40.6748C70.4229 40.4346 71.0439 40.3145 71.7354 40.3145C72.4092 40.3145 73.0068 40.4258 73.5283 40.6484C74.0498 40.8711 74.4863 41.1875 74.8379 41.5977C75.1953 42.0078 75.4648 42.5 75.6465 43.0742C75.8281 43.6426 75.9189 44.2754 75.9189 44.9727V46.0273H68.3604V44.3398H73.4316V44.1465C73.4316 43.7949 73.3672 43.4814 73.2383 43.2061C73.1152 42.9248 72.9277 42.7021 72.6758 42.5381C72.4238 42.374 72.1016 42.292 71.709 42.292C71.375 42.292 71.0879 42.3652 70.8477 42.5117C70.6074 42.6582 70.4111 42.8633 70.2588 43.127C70.1123 43.3906 70.001 43.7012 69.9248 44.0586C69.8545 44.4102 69.8193 44.7969 69.8193 45.2188V45.5703C69.8193 45.9512 69.8721 46.3027 69.9775 46.625C70.0889 46.9473 70.2441 47.2256 70.4434 47.46C70.6484 47.6943 70.8945 47.876 71.1816 48.0049C71.4746 48.1338 71.8057 48.1982 72.1748 48.1982C72.6318 48.1982 73.0566 48.1104 73.4492 47.9346C73.8477 47.7529 74.1904 47.4805 74.4775 47.1172L75.708 48.4531C75.5088 48.7402 75.2363 49.0156 74.8906 49.2793C74.5508 49.543 74.1406 49.7598 73.6602 49.9297C73.1797 50.0938 72.6318 50.1758 72.0166 50.1758ZM79.8916 42.5645V50H77.3604V40.4902H79.7422L79.8916 42.5645ZM82.7568 40.4287L82.7129 42.7754C82.5898 42.7578 82.4404 42.7432 82.2646 42.7314C82.0947 42.7139 81.9395 42.7051 81.7988 42.7051C81.4414 42.7051 81.1309 42.752 80.8672 42.8457C80.6094 42.9336 80.3926 43.0654 80.2168 43.2412C80.0469 43.417 79.918 43.6309 79.8301 43.8828C79.748 44.1348 79.7012 44.4219 79.6895 44.7441L79.1797 44.5859C79.1797 43.9707 79.2412 43.4053 79.3643 42.8896C79.4873 42.3682 79.666 41.9141 79.9004 41.5273C80.1406 41.1406 80.4336 40.8418 80.7793 40.6309C81.125 40.4199 81.5205 40.3145 81.9658 40.3145C82.1064 40.3145 82.25 40.3262 82.3965 40.3496C82.543 40.3672 82.6631 40.3936 82.7568 40.4287ZM89.0498 40.4902V42.2832H83.5127V40.4902H89.0498ZM84.8838 38.1436H87.415V47.1348C87.415 47.4102 87.4502 47.6211 87.5205 47.7676C87.5967 47.9141 87.708 48.0166 87.8545 48.0752C88.001 48.1279 88.1855 48.1543 88.4082 48.1543C88.5664 48.1543 88.707 48.1484 88.8301 48.1367C88.959 48.1191 89.0674 48.1016 89.1553 48.084L89.1641 49.9473C88.9473 50.0176 88.7129 50.0732 88.4609 50.1143C88.209 50.1553 87.9307 50.1758 87.626 50.1758C87.0693 50.1758 86.583 50.085 86.167 49.9033C85.7568 49.7158 85.4404 49.417 85.2178 49.0068C84.9951 48.5967 84.8838 48.0576 84.8838 47.3896V38.1436ZM95.6328 47.3721C95.6328 47.1904 95.5801 47.0264 95.4746 46.8799C95.3691 46.7334 95.1729 46.5986 94.8857 46.4756C94.6045 46.3467 94.1973 46.2295 93.6641 46.124C93.1836 46.0186 92.7354 45.8867 92.3193 45.7285C91.9092 45.5645 91.5518 45.3682 91.2471 45.1396C90.9482 44.9111 90.7139 44.6416 90.5439 44.3311C90.374 44.0146 90.2891 43.6543 90.2891 43.25C90.2891 42.8516 90.374 42.4766 90.5439 42.125C90.7197 41.7734 90.9688 41.4629 91.291 41.1934C91.6191 40.918 92.0176 40.7041 92.4863 40.5518C92.9609 40.3936 93.4941 40.3145 94.0859 40.3145C94.9121 40.3145 95.6211 40.4463 96.2129 40.71C96.8105 40.9736 97.2676 41.3369 97.584 41.7998C97.9062 42.2568 98.0674 42.7783 98.0674 43.3643H95.5361C95.5361 43.1182 95.4834 42.8984 95.3779 42.7051C95.2783 42.5059 95.1201 42.3506 94.9033 42.2393C94.6924 42.1221 94.417 42.0635 94.0771 42.0635C93.7959 42.0635 93.5527 42.1133 93.3477 42.2129C93.1426 42.3066 92.9844 42.4355 92.873 42.5996C92.7676 42.7578 92.7148 42.9336 92.7148 43.127C92.7148 43.2734 92.7441 43.4053 92.8027 43.5225C92.8672 43.6338 92.9697 43.7363 93.1104 43.8301C93.251 43.9238 93.4326 44.0117 93.6553 44.0938C93.8838 44.1699 94.165 44.2402 94.499 44.3047C95.1846 44.4453 95.7969 44.6299 96.3359 44.8584C96.875 45.0811 97.3027 45.3857 97.6191 45.7725C97.9355 46.1533 98.0938 46.6543 98.0938 47.2754C98.0938 47.6973 98 48.084 97.8125 48.4355C97.625 48.7871 97.3555 49.0947 97.0039 49.3584C96.6523 49.6162 96.2305 49.8184 95.7383 49.9648C95.252 50.1055 94.7041 50.1758 94.0947 50.1758C93.21 50.1758 92.46 50.0176 91.8447 49.7012C91.2354 49.3848 90.7725 48.9834 90.4561 48.4971C90.1455 48.0049 89.9902 47.501 89.9902 46.9854H92.3896C92.4014 47.3311 92.4893 47.6094 92.6533 47.8203C92.8232 48.0312 93.0371 48.1836 93.2949 48.2773C93.5586 48.3711 93.8428 48.418 94.1475 48.418C94.4756 48.418 94.748 48.374 94.9648 48.2861C95.1816 48.1924 95.3457 48.0693 95.457 47.917C95.5742 47.7588 95.6328 47.5771 95.6328 47.3721Z" fill="black"/>
<circle cx="68" cy="63" r="4" fill="#852417"/>
</svg>
