<svg width="106" height="57" viewBox="0 0 106 57" fill="none" xmlns="http://www.w3.org/2000/svg">
<path d="M27.2537 3H3V53H27.2537M78.7463 3H103V53H78.7463" stroke="#043535" stroke-width="6"/>
<path d="M12.3125 21.9443V15.0469H14.3564V21.9443C14.3564 22.6097 14.2106 23.1816 13.9189 23.6602C13.6273 24.1341 13.2285 24.4987 12.7227 24.7539C12.2214 25.0091 11.6562 25.1367 11.0273 25.1367C10.3757 25.1367 9.79915 25.0273 9.29785 24.8086C8.79655 24.5898 8.40234 24.2549 8.11523 23.8037C7.82812 23.348 7.68457 22.7715 7.68457 22.0742H9.74219C9.74219 22.4388 9.79232 22.7282 9.89258 22.9424C9.9974 23.1566 10.1455 23.3092 10.3369 23.4004C10.5283 23.4915 10.7585 23.5371 11.0273 23.5371C11.2871 23.5371 11.5127 23.4756 11.7041 23.3525C11.8955 23.2295 12.0436 23.0495 12.1484 22.8125C12.2578 22.5755 12.3125 22.2861 12.3125 21.9443ZM19.3877 25.1367C18.8135 25.1367 18.2985 25.0456 17.8428 24.8633C17.387 24.6764 16.9997 24.4189 16.6807 24.0908C16.3662 23.7627 16.1247 23.3822 15.9561 22.9492C15.7874 22.5117 15.7031 22.0469 15.7031 21.5547V21.2812C15.7031 20.7207 15.7829 20.208 15.9424 19.7432C16.1019 19.2783 16.3298 18.875 16.626 18.5332C16.9268 18.1914 17.2913 17.9294 17.7197 17.7471C18.1481 17.5602 18.6312 17.4668 19.1689 17.4668C19.693 17.4668 20.1579 17.5534 20.5635 17.7266C20.9691 17.8997 21.3086 18.1458 21.582 18.4648C21.86 18.7839 22.0697 19.1667 22.2109 19.6133C22.3522 20.0553 22.4229 20.5475 22.4229 21.0898V21.9102H16.5439V20.5977H20.4883V20.4473C20.4883 20.1738 20.4382 19.93 20.3379 19.7158C20.2422 19.4971 20.0964 19.3239 19.9004 19.1963C19.7044 19.0687 19.4538 19.0049 19.1484 19.0049C18.8887 19.0049 18.6654 19.0618 18.4785 19.1758C18.2917 19.2897 18.139 19.4492 18.0205 19.6543C17.9066 19.8594 17.82 20.1009 17.7607 20.3789C17.7061 20.6523 17.6787 20.9531 17.6787 21.2812V21.5547C17.6787 21.8509 17.7197 22.1243 17.8018 22.375C17.8883 22.6257 18.0091 22.8421 18.1641 23.0244C18.3236 23.2067 18.515 23.348 18.7383 23.4482C18.9661 23.5485 19.2236 23.5986 19.5107 23.5986C19.8662 23.5986 20.1966 23.5303 20.502 23.3936C20.8118 23.2523 21.0785 23.0404 21.3018 22.7578L22.2588 23.7969C22.1038 24.0202 21.8919 24.2344 21.623 24.4395C21.3587 24.6445 21.0397 24.8132 20.666 24.9453C20.2923 25.0729 19.8662 25.1367 19.3877 25.1367ZM25.4717 19.1826V25H23.5029V17.6035H25.3486L25.4717 19.1826ZM25.1846 21.042H24.6514C24.6514 20.4951 24.722 20.0029 24.8633 19.5654C25.0046 19.1234 25.2028 18.7474 25.458 18.4375C25.7132 18.123 26.0163 17.8838 26.3672 17.7197C26.7227 17.5511 27.1191 17.4668 27.5566 17.4668C27.903 17.4668 28.2197 17.5169 28.5068 17.6172C28.7939 17.7174 29.04 17.877 29.2451 18.0957C29.4548 18.3145 29.6143 18.6038 29.7236 18.9639C29.8376 19.3239 29.8945 19.7637 29.8945 20.2832V25H27.9121V20.2764C27.9121 19.9482 27.8665 19.693 27.7754 19.5107C27.6842 19.3285 27.5498 19.2008 27.3721 19.1279C27.1989 19.0505 26.9847 19.0117 26.7295 19.0117C26.4652 19.0117 26.235 19.0641 26.0391 19.1689C25.8477 19.2738 25.6882 19.4196 25.5605 19.6064C25.4375 19.7887 25.3441 20.0029 25.2803 20.249C25.2165 20.4951 25.1846 20.7594 25.1846 21.042ZM33.4697 17.6035V25H31.4941V17.6035H33.4697ZM31.3711 15.6758C31.3711 15.3887 31.4714 15.1517 31.6719 14.9648C31.8724 14.778 32.1413 14.6846 32.4785 14.6846C32.8112 14.6846 33.0778 14.778 33.2783 14.9648C33.4834 15.1517 33.5859 15.3887 33.5859 15.6758C33.5859 15.9629 33.4834 16.1999 33.2783 16.3867C33.0778 16.5736 32.8112 16.667 32.4785 16.667C32.1413 16.667 31.8724 16.5736 31.6719 16.3867C31.4714 16.1999 31.3711 15.9629 31.3711 15.6758ZM37.6055 25H35.623V16.9473C35.623 16.3867 35.7324 15.915 35.9512 15.5322C36.1745 15.1449 36.4867 14.8532 36.8877 14.6572C37.2933 14.4567 37.7741 14.3564 38.3301 14.3564C38.5124 14.3564 38.6878 14.3701 38.8564 14.3975C39.0251 14.4202 39.1891 14.4499 39.3486 14.4863L39.3281 15.9697C39.2415 15.9469 39.1504 15.931 39.0547 15.9219C38.959 15.9128 38.8473 15.9082 38.7197 15.9082C38.4827 15.9082 38.2799 15.9492 38.1113 16.0312C37.9473 16.1087 37.8219 16.2249 37.7354 16.3799C37.6488 16.5348 37.6055 16.724 37.6055 16.9473V25ZM39.082 17.6035V18.998H34.5225V17.6035H39.082ZM47.5996 21.4521H45.0635V19.8525H47.5996C47.9915 19.8525 48.3105 19.7887 48.5566 19.6611C48.8027 19.529 48.9827 19.3467 49.0967 19.1143C49.2106 18.8818 49.2676 18.6198 49.2676 18.3281C49.2676 18.0319 49.2106 17.7562 49.0967 17.501C48.9827 17.2458 48.8027 17.0407 48.5566 16.8857C48.3105 16.7308 47.9915 16.6533 47.5996 16.6533H45.7744V25H43.7236V15.0469H47.5996C48.3789 15.0469 49.0465 15.1882 49.6025 15.4707C50.1631 15.7487 50.5915 16.1338 50.8877 16.626C51.1839 17.1182 51.332 17.681 51.332 18.3145C51.332 18.957 51.1839 19.513 50.8877 19.9824C50.5915 20.4518 50.1631 20.8141 49.6025 21.0693C49.0465 21.3245 48.3789 21.4521 47.5996 21.4521ZM56.5342 23.332V20.0371C56.5342 19.8001 56.4954 19.5973 56.418 19.4287C56.3405 19.2555 56.2197 19.1211 56.0557 19.0254C55.8962 18.9297 55.6888 18.8818 55.4336 18.8818C55.2148 18.8818 55.0257 18.9206 54.8662 18.998C54.7067 19.071 54.5837 19.1781 54.4971 19.3193C54.4105 19.4561 54.3672 19.6178 54.3672 19.8047H52.3984C52.3984 19.4902 52.4714 19.1917 52.6172 18.9092C52.763 18.6266 52.9749 18.3783 53.2529 18.1641C53.5309 17.9453 53.8613 17.7744 54.2441 17.6514C54.6315 17.5283 55.0645 17.4668 55.543 17.4668C56.1172 17.4668 56.6276 17.5625 57.0742 17.7539C57.5208 17.9453 57.8717 18.2324 58.127 18.6152C58.3867 18.998 58.5166 19.4766 58.5166 20.0508V23.2158C58.5166 23.6214 58.5417 23.9541 58.5918 24.2139C58.6419 24.4691 58.7148 24.6924 58.8105 24.8838V25H56.8213C56.7256 24.7995 56.6527 24.5488 56.6025 24.248C56.557 23.9427 56.5342 23.6374 56.5342 23.332ZM56.7939 20.4951L56.8076 21.6094H55.707C55.4473 21.6094 55.2217 21.639 55.0303 21.6982C54.8389 21.7575 54.6816 21.8418 54.5586 21.9512C54.4355 22.056 54.3444 22.179 54.2852 22.3203C54.2305 22.4616 54.2031 22.6165 54.2031 22.7852C54.2031 22.9538 54.2419 23.1064 54.3193 23.2432C54.3968 23.3753 54.5085 23.4801 54.6543 23.5576C54.8001 23.6305 54.971 23.667 55.167 23.667C55.4632 23.667 55.7207 23.6077 55.9395 23.4893C56.1582 23.3708 56.3268 23.2249 56.4453 23.0518C56.5684 22.8786 56.6322 22.7145 56.6367 22.5596L57.1562 23.3936C57.0833 23.5804 56.9831 23.7741 56.8555 23.9746C56.7324 24.1751 56.5752 24.3643 56.3838 24.542C56.1924 24.7152 55.9622 24.8587 55.6934 24.9727C55.4245 25.082 55.1055 25.1367 54.7363 25.1367C54.2669 25.1367 53.8408 25.0433 53.458 24.8564C53.0798 24.665 52.779 24.403 52.5557 24.0703C52.3369 23.7331 52.2275 23.3503 52.2275 22.9219C52.2275 22.5345 52.3005 22.1904 52.4463 21.8896C52.5921 21.5889 52.8063 21.3359 53.0889 21.1309C53.376 20.9212 53.7337 20.764 54.1621 20.6592C54.5905 20.5498 55.0872 20.4951 55.6523 20.4951H56.7939ZM62.1123 17.6035V25H60.1367V17.6035H62.1123ZM60.0137 15.6758C60.0137 15.3887 60.1139 15.1517 60.3145 14.9648C60.515 14.778 60.7839 14.6846 61.1211 14.6846C61.4538 14.6846 61.7204 14.778 61.9209 14.9648C62.126 15.1517 62.2285 15.3887 62.2285 15.6758C62.2285 15.9629 62.126 16.1999 61.9209 16.3867C61.7204 16.5736 61.4538 16.667 61.1211 16.667C60.7839 16.667 60.515 16.5736 60.3145 16.3867C60.1139 16.1999 60.0137 15.9629 60.0137 15.6758ZM65.667 19.1826V25H63.6982V17.6035H65.5439L65.667 19.1826ZM65.3799 21.042H64.8467C64.8467 20.4951 64.9173 20.0029 65.0586 19.5654C65.1999 19.1234 65.3981 18.7474 65.6533 18.4375C65.9085 18.123 66.2116 17.8838 66.5625 17.7197C66.918 17.5511 67.3145 17.4668 67.752 17.4668C68.0983 17.4668 68.415 17.5169 68.7021 17.6172C68.9893 17.7174 69.2354 17.877 69.4404 18.0957C69.6501 18.3145 69.8096 18.6038 69.9189 18.9639C70.0329 19.3239 70.0898 19.7637 70.0898 20.2832V25H68.1074V20.2764C68.1074 19.9482 68.0618 19.693 67.9707 19.5107C67.8796 19.3285 67.7451 19.2008 67.5674 19.1279C67.3942 19.0505 67.18 19.0117 66.9248 19.0117C66.6605 19.0117 66.4303 19.0641 66.2344 19.1689C66.043 19.2738 65.8835 19.4196 65.7559 19.6064C65.6328 19.7887 65.5394 20.0029 65.4756 20.249C65.4118 20.4951 65.3799 20.7594 65.3799 21.042ZM75.21 17.6035V18.998H70.9033V17.6035H75.21ZM71.9697 15.7783H73.9385V22.7715C73.9385 22.9857 73.9658 23.1497 74.0205 23.2637C74.0798 23.3776 74.1663 23.4574 74.2803 23.5029C74.3942 23.5439 74.5378 23.5645 74.7109 23.5645C74.834 23.5645 74.9434 23.5599 75.0391 23.5508C75.1393 23.5371 75.2236 23.5234 75.292 23.5098L75.2988 24.959C75.1302 25.0137 74.9479 25.057 74.752 25.0889C74.556 25.1208 74.3395 25.1367 74.1025 25.1367C73.6696 25.1367 73.2913 25.0661 72.9678 24.9248C72.6488 24.779 72.4027 24.5465 72.2295 24.2275C72.0563 23.9085 71.9697 23.4893 71.9697 22.9697V15.7783ZM78.4092 17.6035V25H76.4336V17.6035H78.4092ZM76.3105 15.6758C76.3105 15.3887 76.4108 15.1517 76.6113 14.9648C76.8118 14.778 77.0807 14.6846 77.418 14.6846C77.7507 14.6846 78.0173 14.778 78.2178 14.9648C78.4229 15.1517 78.5254 15.3887 78.5254 15.6758C78.5254 15.9629 78.4229 16.1999 78.2178 16.3867C78.0173 16.5736 77.7507 16.667 77.418 16.667C77.0807 16.667 76.8118 16.5736 76.6113 16.3867C76.4108 16.1999 76.3105 15.9629 76.3105 15.6758ZM81.9639 19.1826V25H79.9951V17.6035H81.8408L81.9639 19.1826ZM81.6768 21.042H81.1436C81.1436 20.4951 81.2142 20.0029 81.3555 19.5654C81.4967 19.1234 81.695 18.7474 81.9502 18.4375C82.2054 18.123 82.5085 17.8838 82.8594 17.7197C83.2148 17.5511 83.6113 17.4668 84.0488 17.4668C84.3952 17.4668 84.7119 17.5169 84.999 17.6172C85.2861 17.7174 85.5322 17.877 85.7373 18.0957C85.9469 18.3145 86.1064 18.6038 86.2158 18.9639C86.3298 19.3239 86.3867 19.7637 86.3867 20.2832V25H84.4043V20.2764C84.4043 19.9482 84.3587 19.693 84.2676 19.5107C84.1764 19.3285 84.042 19.2008 83.8643 19.1279C83.6911 19.0505 83.4769 19.0117 83.2217 19.0117C82.9574 19.0117 82.7272 19.0641 82.5312 19.1689C82.3398 19.2738 82.1803 19.4196 82.0527 19.6064C81.9297 19.7887 81.8363 20.0029 81.7725 20.249C81.7087 20.4951 81.6768 20.7594 81.6768 21.042ZM92.5664 17.6035H94.3506V24.7539C94.3506 25.4284 94.2002 26.0003 93.8994 26.4697C93.6032 26.9437 93.1885 27.3014 92.6553 27.543C92.1221 27.7891 91.5023 27.9121 90.7959 27.9121C90.486 27.9121 90.1579 27.8711 89.8115 27.7891C89.4697 27.707 89.1416 27.5794 88.8271 27.4062C88.5173 27.2331 88.2575 27.0143 88.0479 26.75L88.916 25.5879C89.1439 25.8522 89.4082 26.0573 89.709 26.2031C90.0098 26.3535 90.3424 26.4287 90.707 26.4287C91.0625 26.4287 91.3633 26.3626 91.6094 26.2305C91.8555 26.1029 92.0446 25.9137 92.1768 25.6631C92.3089 25.417 92.375 25.1185 92.375 24.7676V19.3125L92.5664 17.6035ZM87.5898 21.3906V21.2471C87.5898 20.682 87.6582 20.1693 87.7949 19.709C87.9362 19.2441 88.1344 18.8454 88.3896 18.5127C88.6494 18.18 88.9639 17.9225 89.333 17.7402C89.7021 17.5579 90.1191 17.4668 90.584 17.4668C91.0762 17.4668 91.4886 17.5579 91.8213 17.7402C92.154 17.9225 92.4274 18.1823 92.6416 18.5195C92.8558 18.8522 93.0221 19.2464 93.1406 19.7021C93.2637 20.1533 93.3594 20.6478 93.4277 21.1855V21.5C93.3594 22.015 93.2568 22.4935 93.1201 22.9355C92.9834 23.3776 92.8034 23.765 92.5801 24.0977C92.3568 24.4258 92.0788 24.681 91.7461 24.8633C91.418 25.0456 91.026 25.1367 90.5703 25.1367C90.1146 25.1367 89.7021 25.0433 89.333 24.8564C88.9684 24.6696 88.6562 24.4076 88.3965 24.0703C88.1367 23.7331 87.9362 23.3366 87.7949 22.8809C87.6582 22.4251 87.5898 21.9284 87.5898 21.3906ZM89.5586 21.2471V21.3906C89.5586 21.696 89.5882 21.9808 89.6475 22.2451C89.7067 22.5094 89.7979 22.7441 89.9209 22.9492C90.0485 23.1497 90.2057 23.307 90.3926 23.4209C90.584 23.5303 90.8096 23.585 91.0693 23.585C91.4294 23.585 91.7233 23.5098 91.9512 23.3594C92.179 23.2044 92.3499 22.9925 92.4639 22.7236C92.5778 22.4548 92.6439 22.1449 92.6621 21.7939V20.8984C92.653 20.6113 92.6143 20.3538 92.5459 20.126C92.4775 19.8936 92.3818 19.6953 92.2588 19.5312C92.1357 19.3672 91.9762 19.2396 91.7803 19.1484C91.5843 19.0573 91.3519 19.0117 91.083 19.0117C90.8232 19.0117 90.5977 19.071 90.4062 19.1895C90.2194 19.3034 90.0622 19.4606 89.9346 19.6611C89.8115 19.8617 89.7181 20.0986 89.6543 20.3721C89.5905 20.641 89.5586 20.9326 89.5586 21.2471ZM36.6484 39.4004V41H31.3506V39.4004H36.6484ZM32.0205 31.0469V41H29.9697V31.0469H32.0205ZM35.958 35.1006V36.6592H31.3506V35.1006H35.958ZM36.6416 31.0469V32.6533H31.3506V31.0469H36.6416ZM39.3076 33.6035L40.5312 35.8525L41.7891 33.6035H43.8877L41.7959 37.2197L43.9834 41H41.8779L40.5449 38.6211L39.2119 41H37.1064L39.2939 37.2197L37.2021 33.6035H39.3076ZM46.8135 35.0254V43.8438H44.8447V33.6035H46.6699L46.8135 35.0254ZM51.4961 37.2197V37.3633C51.4961 37.901 51.4323 38.4001 51.3047 38.8604C51.1816 39.3206 50.9993 39.7217 50.7578 40.0635C50.5163 40.4007 50.2155 40.665 49.8555 40.8564C49.5 41.0433 49.0898 41.1367 48.625 41.1367C48.1738 41.1367 47.7819 41.0456 47.4492 40.8633C47.1165 40.681 46.8363 40.4258 46.6084 40.0977C46.3851 39.765 46.2051 39.3799 46.0684 38.9424C45.9316 38.5049 45.8268 38.0355 45.7539 37.5342V37.1582C45.8268 36.6204 45.9316 36.1283 46.0684 35.6816C46.2051 35.2305 46.3851 34.8408 46.6084 34.5127C46.8363 34.18 47.1143 33.9225 47.4424 33.7402C47.7751 33.5579 48.1647 33.4668 48.6113 33.4668C49.0807 33.4668 49.4932 33.5557 49.8486 33.7334C50.2087 33.9111 50.5094 34.1663 50.751 34.499C50.9971 34.8317 51.1816 35.2282 51.3047 35.6885C51.4323 36.1488 51.4961 36.6592 51.4961 37.2197ZM49.5205 37.3633V37.2197C49.5205 36.9053 49.4932 36.6159 49.4385 36.3516C49.3883 36.0827 49.3063 35.848 49.1924 35.6475C49.083 35.4469 48.9372 35.292 48.7549 35.1826C48.5771 35.0687 48.3607 35.0117 48.1055 35.0117C47.8366 35.0117 47.6064 35.055 47.415 35.1416C47.2282 35.2282 47.0755 35.3535 46.957 35.5176C46.8385 35.6816 46.7497 35.8776 46.6904 36.1055C46.6312 36.3333 46.5947 36.5908 46.5811 36.8779V37.8281C46.6038 38.1654 46.6676 38.4684 46.7725 38.7373C46.8773 39.0016 47.0391 39.2113 47.2578 39.3662C47.4766 39.5212 47.7637 39.5986 48.1191 39.5986C48.3789 39.5986 48.5977 39.5417 48.7754 39.4277C48.9531 39.3092 49.0967 39.1475 49.2061 38.9424C49.32 38.7373 49.3997 38.5003 49.4453 38.2314C49.4954 37.9626 49.5205 37.6732 49.5205 37.3633ZM56.124 41.1367C55.5498 41.1367 55.0348 41.0456 54.5791 40.8633C54.1234 40.6764 53.736 40.4189 53.417 40.0908C53.1025 39.7627 52.861 39.3822 52.6924 38.9492C52.5238 38.5117 52.4395 38.0469 52.4395 37.5547V37.2812C52.4395 36.7207 52.5192 36.208 52.6787 35.7432C52.8382 35.2783 53.0661 34.875 53.3623 34.5332C53.6631 34.1914 54.0277 33.9294 54.4561 33.7471C54.8844 33.5602 55.3675 33.4668 55.9053 33.4668C56.4294 33.4668 56.8942 33.5534 57.2998 33.7266C57.7054 33.8997 58.0449 34.1458 58.3184 34.4648C58.5964 34.7839 58.806 35.1667 58.9473 35.6133C59.0885 36.0553 59.1592 36.5475 59.1592 37.0898V37.9102H53.2803V36.5977H57.2246V36.4473C57.2246 36.1738 57.1745 35.93 57.0742 35.7158C56.9785 35.4971 56.8327 35.3239 56.6367 35.1963C56.4408 35.0687 56.1901 35.0049 55.8848 35.0049C55.625 35.0049 55.4017 35.0618 55.2148 35.1758C55.028 35.2897 54.8753 35.4492 54.7568 35.6543C54.6429 35.8594 54.5563 36.1009 54.4971 36.3789C54.4424 36.6523 54.415 36.9531 54.415 37.2812V37.5547C54.415 37.8509 54.4561 38.1243 54.5381 38.375C54.6247 38.6257 54.7454 38.8421 54.9004 39.0244C55.0599 39.2067 55.2513 39.348 55.4746 39.4482C55.7025 39.5485 55.96 39.5986 56.2471 39.5986C56.6025 39.5986 56.9329 39.5303 57.2383 39.3936C57.5482 39.2523 57.8148 39.0404 58.0381 38.7578L58.9951 39.7969C58.8402 40.0202 58.6283 40.2344 58.3594 40.4395C58.0951 40.6445 57.776 40.8132 57.4023 40.9453C57.0286 41.0729 56.6025 41.1367 56.124 41.1367ZM62.249 35.2168V41H60.2803V33.6035H62.1328L62.249 35.2168ZM64.4775 33.5557L64.4434 35.3809C64.3477 35.3672 64.2314 35.3558 64.0947 35.3467C63.9626 35.333 63.8418 35.3262 63.7324 35.3262C63.4544 35.3262 63.2129 35.3626 63.0078 35.4355C62.8073 35.5039 62.6387 35.6064 62.502 35.7432C62.3698 35.8799 62.2695 36.0462 62.2012 36.2422C62.1374 36.4382 62.1009 36.6615 62.0918 36.9121L61.6953 36.7891C61.6953 36.3105 61.7432 35.8708 61.8389 35.4697C61.9346 35.0641 62.0736 34.7109 62.2559 34.4102C62.4427 34.1094 62.6706 33.877 62.9395 33.7129C63.2083 33.5488 63.516 33.4668 63.8623 33.4668C63.9717 33.4668 64.0833 33.4759 64.1973 33.4941C64.3112 33.5078 64.4046 33.5283 64.4775 33.5557ZM69.3721 33.6035V34.998H65.0654V33.6035H69.3721ZM66.1318 31.7783H68.1006V38.7715C68.1006 38.9857 68.1279 39.1497 68.1826 39.2637C68.2419 39.3776 68.3285 39.4574 68.4424 39.5029C68.5563 39.5439 68.6999 39.5645 68.873 39.5645C68.9961 39.5645 69.1055 39.5599 69.2012 39.5508C69.3014 39.5371 69.3857 39.5234 69.4541 39.5098L69.4609 40.959C69.2923 41.0137 69.11 41.057 68.9141 41.0889C68.7181 41.1208 68.5016 41.1367 68.2646 41.1367C67.8317 41.1367 67.4535 41.0661 67.1299 40.9248C66.8109 40.779 66.5648 40.5465 66.3916 40.2275C66.2184 39.9085 66.1318 39.4893 66.1318 38.9697V31.7783ZM74.4922 38.9561C74.4922 38.8148 74.4512 38.6872 74.3691 38.5732C74.2871 38.4593 74.1344 38.3545 73.9111 38.2588C73.6924 38.1585 73.3757 38.0674 72.9609 37.9854C72.5872 37.9033 72.2386 37.8008 71.915 37.6777C71.596 37.5501 71.318 37.3975 71.0811 37.2197C70.8486 37.042 70.6663 36.8324 70.5342 36.5908C70.402 36.3447 70.3359 36.0645 70.3359 35.75C70.3359 35.4401 70.402 35.1484 70.5342 34.875C70.6709 34.6016 70.8646 34.36 71.1152 34.1504C71.3704 33.9362 71.6803 33.7699 72.0449 33.6514C72.4141 33.5283 72.8288 33.4668 73.2891 33.4668C73.9316 33.4668 74.4831 33.5693 74.9434 33.7744C75.4082 33.9795 75.7637 34.262 76.0098 34.6221C76.2604 34.9775 76.3857 35.3831 76.3857 35.8389H74.417C74.417 35.6475 74.376 35.4766 74.2939 35.3262C74.2165 35.1712 74.0934 35.0505 73.9248 34.9639C73.7607 34.8727 73.5465 34.8271 73.2822 34.8271C73.0635 34.8271 72.8743 34.8659 72.7148 34.9434C72.5553 35.0163 72.4323 35.1165 72.3457 35.2441C72.2637 35.3672 72.2227 35.5039 72.2227 35.6543C72.2227 35.7682 72.2454 35.8708 72.291 35.9619C72.3411 36.0485 72.4209 36.1283 72.5303 36.2012C72.6396 36.2741 72.7809 36.3424 72.9541 36.4062C73.1318 36.4655 73.3506 36.5202 73.6104 36.5703C74.1436 36.6797 74.6198 36.8232 75.0391 37.001C75.4583 37.1742 75.791 37.4111 76.0371 37.7119C76.2832 38.0081 76.4062 38.3978 76.4062 38.8809C76.4062 39.209 76.3333 39.5098 76.1875 39.7832C76.0417 40.0566 75.832 40.2959 75.5586 40.501C75.2852 40.7015 74.957 40.8587 74.5742 40.9727C74.196 41.082 73.7699 41.1367 73.2959 41.1367C72.6077 41.1367 72.0244 41.0137 71.5459 40.7676C71.0719 40.5215 70.7119 40.2093 70.4658 39.8311C70.2243 39.4482 70.1035 39.0563 70.1035 38.6553H71.9697C71.9788 38.9242 72.0472 39.1406 72.1748 39.3047C72.307 39.4688 72.4733 39.5872 72.6738 39.6602C72.8789 39.7331 73.0999 39.7695 73.3369 39.7695C73.5921 39.7695 73.804 39.7354 73.9727 39.667C74.1413 39.5941 74.2689 39.4984 74.3555 39.3799C74.4466 39.2568 74.4922 39.1156 74.4922 38.9561Z" fill="#020124"/>
<circle cx="53" cy="53" r="4" fill="#852417"/>
</svg>
