<svg width="136" height="67" viewBox="0 0 136 67" fill="none" xmlns="http://www.w3.org/2000/svg">
<path d="M34.5299 3H3V63H34.5299M101.47 3H133V63H101.47" stroke="#043535" stroke-width="6"/>
<path d="M15.626 16.2031H18.2627V25.0625C18.2627 25.877 18.0811 26.5977 17.7178 27.2246C17.3604 27.8457 16.8535 28.3262 16.1973 28.666C15.541 29.0059 14.7998 29.1758 13.9736 29.1758C12.6201 29.1758 11.5654 28.833 10.8096 28.1475C10.0537 27.4561 9.67578 26.4805 9.67578 25.2207H12.3301C12.3301 25.8477 12.4619 26.3105 12.7256 26.6094C12.9893 26.9082 13.4053 27.0576 13.9736 27.0576C14.4775 27.0576 14.8789 26.8848 15.1777 26.5391C15.4766 26.1934 15.626 25.7012 15.626 25.0625V16.2031ZM24.7314 29.1758C23.3369 29.1758 22.2002 28.748 21.3213 27.8926C20.4482 27.0371 20.0117 25.8975 20.0117 24.4736V24.2275C20.0117 23.2725 20.1963 22.4199 20.5654 21.6699C20.9346 20.9141 21.4561 20.334 22.1299 19.9297C22.8096 19.5195 23.583 19.3145 24.4502 19.3145C25.751 19.3145 26.7734 19.7246 27.5176 20.5449C28.2676 21.3652 28.6426 22.5283 28.6426 24.0342V25.0713H22.5869C22.6689 25.6924 22.915 26.1904 23.3252 26.5654C23.7412 26.9404 24.2656 27.1279 24.8984 27.1279C25.877 27.1279 26.6416 26.7734 27.1924 26.0645L28.4404 27.4619C28.0596 28.001 27.5439 28.4229 26.8936 28.7275C26.2432 29.0264 25.5225 29.1758 24.7314 29.1758ZM24.4414 21.3711C23.9375 21.3711 23.5273 21.541 23.2109 21.8809C22.9004 22.2207 22.7012 22.707 22.6133 23.3398H26.1465V23.1377C26.1348 22.5752 25.9824 22.1416 25.6895 21.8369C25.3965 21.5264 24.9805 21.3711 24.4414 21.3711ZM32.4307 19.4902L32.5098 20.5889C33.1895 19.7393 34.1006 19.3145 35.2432 19.3145C36.251 19.3145 37.001 19.6104 37.4932 20.2021C37.9854 20.7939 38.2373 21.6787 38.249 22.8564V29H35.709V22.918C35.709 22.3789 35.5918 21.9893 35.3574 21.749C35.123 21.5029 34.7334 21.3799 34.1885 21.3799C33.4736 21.3799 32.9375 21.6846 32.5801 22.2939V29H30.04V19.4902H32.4307ZM42.8633 29H40.3145V19.4902H42.8633V29ZM40.165 17.0293C40.165 16.6484 40.291 16.335 40.543 16.0889C40.8008 15.8428 41.1494 15.7197 41.5889 15.7197C42.0225 15.7197 42.3682 15.8428 42.626 16.0889C42.8838 16.335 43.0127 16.6484 43.0127 17.0293C43.0127 17.416 42.8809 17.7324 42.6172 17.9785C42.3594 18.2246 42.0166 18.3477 41.5889 18.3477C41.1611 18.3477 40.8154 18.2246 40.5518 17.9785C40.2939 17.7324 40.165 17.416 40.165 17.0293ZM45.6582 29V21.3535H44.2432V19.4902H45.6582V18.6816C45.6582 17.6152 45.9629 16.7891 46.5723 16.2031C47.1875 15.6113 48.0459 15.3154 49.1475 15.3154C49.499 15.3154 49.9297 15.374 50.4395 15.4912L50.4131 17.46C50.2021 17.4072 49.9443 17.3809 49.6396 17.3809C48.6846 17.3809 48.207 17.8291 48.207 18.7256V19.4902H50.0967V21.3535H48.207V29H45.6582ZM58.7012 24.4912V29H56.0645V16.2031H61.0566C62.0176 16.2031 62.8613 16.3789 63.5879 16.7305C64.3203 17.082 64.8828 17.583 65.2754 18.2334C65.668 18.8779 65.8643 19.6133 65.8643 20.4395C65.8643 21.6934 65.4336 22.6836 64.5723 23.4102C63.7168 24.1309 62.5303 24.4912 61.0127 24.4912H58.7012ZM58.7012 22.3555H61.0566C61.7539 22.3555 62.2842 22.1914 62.6475 21.8633C63.0166 21.5352 63.2012 21.0664 63.2012 20.457C63.2012 19.8301 63.0166 19.3232 62.6475 18.9365C62.2783 18.5498 61.7686 18.3506 61.1182 18.3389H58.7012V22.3555ZM72.9219 29C72.8047 28.7715 72.7197 28.4873 72.667 28.1475C72.0518 28.833 71.252 29.1758 70.2676 29.1758C69.3359 29.1758 68.5625 28.9062 67.9473 28.3672C67.3379 27.8281 67.0332 27.1484 67.0332 26.3281C67.0332 25.3203 67.4053 24.5469 68.1494 24.0078C68.8994 23.4688 69.9805 23.1963 71.3926 23.1904H72.5615V22.6455C72.5615 22.2061 72.4473 21.8545 72.2188 21.5908C71.9961 21.3271 71.6416 21.1953 71.1553 21.1953C70.7275 21.1953 70.3906 21.2979 70.1445 21.5029C69.9043 21.708 69.7842 21.9893 69.7842 22.3467H67.2441C67.2441 21.7959 67.4141 21.2861 67.7539 20.8174C68.0938 20.3486 68.5742 19.9824 69.1953 19.7188C69.8164 19.4492 70.5137 19.3145 71.2871 19.3145C72.459 19.3145 73.3877 19.6104 74.0732 20.2021C74.7646 20.7881 75.1104 21.6143 75.1104 22.6807V26.8027C75.1162 27.7051 75.2422 28.3877 75.4883 28.8506V29H72.9219ZM70.8213 27.2334C71.1963 27.2334 71.542 27.1514 71.8584 26.9873C72.1748 26.8174 72.4092 26.5918 72.5615 26.3105V24.6758H71.6123C70.3408 24.6758 69.6641 25.1152 69.582 25.9941L69.5732 26.1436C69.5732 26.46 69.6846 26.7207 69.9072 26.9258C70.1299 27.1309 70.4346 27.2334 70.8213 27.2334ZM79.7422 29H77.1934V19.4902H79.7422V29ZM77.0439 17.0293C77.0439 16.6484 77.1699 16.335 77.4219 16.0889C77.6797 15.8428 78.0283 15.7197 78.4678 15.7197C78.9014 15.7197 79.2471 15.8428 79.5049 16.0889C79.7627 16.335 79.8916 16.6484 79.8916 17.0293C79.8916 17.416 79.7598 17.7324 79.4961 17.9785C79.2383 18.2246 78.8955 18.3477 78.4678 18.3477C78.04 18.3477 77.6943 18.2246 77.4307 17.9785C77.1729 17.7324 77.0439 17.416 77.0439 17.0293ZM84.1807 19.4902L84.2598 20.5889C84.9395 19.7393 85.8506 19.3145 86.9932 19.3145C88.001 19.3145 88.751 19.6104 89.2432 20.2021C89.7354 20.7939 89.9873 21.6787 89.999 22.8564V29H87.459V22.918C87.459 22.3789 87.3418 21.9893 87.1074 21.749C86.873 21.5029 86.4834 21.3799 85.9385 21.3799C85.2236 21.3799 84.6875 21.6846 84.3301 22.2939V29H81.79V19.4902H84.1807ZM94.9736 17.1523V19.4902H96.5996V21.3535H94.9736V26.0996C94.9736 26.4512 95.041 26.7031 95.1758 26.8555C95.3105 27.0078 95.5684 27.084 95.9492 27.084C96.2305 27.084 96.4795 27.0635 96.6963 27.0225V28.9473C96.1982 29.0996 95.6855 29.1758 95.1582 29.1758C93.377 29.1758 92.4688 28.2764 92.4336 26.4775V21.3535H91.0449V19.4902H92.4336V17.1523H94.9736ZM100.695 29H98.1465V19.4902H100.695V29ZM97.9971 17.0293C97.9971 16.6484 98.123 16.335 98.375 16.0889C98.6328 15.8428 98.9814 15.7197 99.4209 15.7197C99.8545 15.7197 100.2 15.8428 100.458 16.0889C100.716 16.335 100.845 16.6484 100.845 17.0293C100.845 17.416 100.713 17.7324 100.449 17.9785C100.191 18.2246 99.8486 18.3477 99.4209 18.3477C98.9932 18.3477 98.6475 18.2246 98.3838 17.9785C98.126 17.7324 97.9971 17.416 97.9971 17.0293ZM105.134 19.4902L105.213 20.5889C105.893 19.7393 106.804 19.3145 107.946 19.3145C108.954 19.3145 109.704 19.6104 110.196 20.2021C110.688 20.7939 110.94 21.6787 110.952 22.8564V29H108.412V22.918C108.412 22.3789 108.295 21.9893 108.061 21.749C107.826 21.5029 107.437 21.3799 106.892 21.3799C106.177 21.3799 105.641 21.6846 105.283 22.2939V29H102.743V19.4902H105.134ZM112.517 24.1748C112.517 22.7158 112.862 21.541 113.554 20.6504C114.251 19.7598 115.188 19.3145 116.366 19.3145C117.409 19.3145 118.221 19.6719 118.801 20.3867L118.906 19.4902H121.209V28.6836C121.209 29.5156 121.019 30.2393 120.638 30.8545C120.263 31.4697 119.732 31.9385 119.047 32.2607C118.361 32.583 117.559 32.7441 116.639 32.7441C115.941 32.7441 115.262 32.6035 114.6 32.3223C113.938 32.0469 113.437 31.6895 113.097 31.25L114.222 29.7031C114.854 30.4121 115.622 30.7666 116.524 30.7666C117.198 30.7666 117.723 30.585 118.098 30.2217C118.473 29.8643 118.66 29.3545 118.66 28.6924V28.1826C118.074 28.8447 117.304 29.1758 116.349 29.1758C115.206 29.1758 114.28 28.7305 113.571 27.8398C112.868 26.9434 112.517 25.7568 112.517 24.2803V24.1748ZM115.057 24.3594C115.057 25.2207 115.229 25.8975 115.575 26.3896C115.921 26.876 116.396 27.1191 116.999 27.1191C117.772 27.1191 118.326 26.8291 118.66 26.249V22.25C118.32 21.6699 117.772 21.3799 117.017 21.3799C116.407 21.3799 115.927 21.6289 115.575 22.127C115.229 22.625 115.057 23.3691 115.057 24.3594ZM46.0801 44.4541H41.0176V47.8818H46.959V50H38.3809V37.2031H46.9414V39.3389H41.0176V42.3887H46.0801V44.4541ZM51.96 43.3291L53.5596 40.4902H56.2754L53.5684 45.1484L56.3896 50H53.665L51.9688 47.0117L50.2812 50H47.5479L50.3691 45.1484L47.6709 40.4902H50.3955L51.96 43.3291ZM66.0576 45.333C66.0576 46.7979 65.7236 47.9727 65.0557 48.8574C64.3936 49.7363 63.4971 50.1758 62.3662 50.1758C61.4053 50.1758 60.6289 49.8418 60.0371 49.1738V53.6562H57.4971V40.4902H59.8525L59.9404 41.4219C60.5557 40.6836 61.3584 40.3145 62.3486 40.3145C63.5205 40.3145 64.4316 40.748 65.082 41.6152C65.7324 42.4824 66.0576 43.6777 66.0576 45.2012V45.333ZM63.5176 45.1484C63.5176 44.2637 63.3594 43.5811 63.043 43.1006C62.7324 42.6201 62.2783 42.3799 61.6807 42.3799C60.8838 42.3799 60.3359 42.6846 60.0371 43.2939V47.1875C60.3477 47.8145 60.9014 48.1279 61.6982 48.1279C62.9111 48.1279 63.5176 47.1348 63.5176 45.1484ZM72.0166 50.1758C70.6221 50.1758 69.4854 49.748 68.6064 48.8926C67.7334 48.0371 67.2969 46.8975 67.2969 45.4736V45.2275C67.2969 44.2725 67.4814 43.4199 67.8506 42.6699C68.2197 41.9141 68.7412 41.334 69.415 40.9297C70.0947 40.5195 70.8682 40.3145 71.7354 40.3145C73.0361 40.3145 74.0586 40.7246 74.8027 41.5449C75.5527 42.3652 75.9277 43.5283 75.9277 45.0342V46.0713H69.8721C69.9541 46.6924 70.2002 47.1904 70.6104 47.5654C71.0264 47.9404 71.5508 48.1279 72.1836 48.1279C73.1621 48.1279 73.9268 47.7734 74.4775 47.0645L75.7256 48.4619C75.3447 49.001 74.8291 49.4229 74.1787 49.7275C73.5283 50.0264 72.8076 50.1758 72.0166 50.1758ZM71.7266 42.3711C71.2227 42.3711 70.8125 42.541 70.4961 42.8809C70.1855 43.2207 69.9863 43.707 69.8984 44.3398H73.4316V44.1377C73.4199 43.5752 73.2676 43.1416 72.9746 42.8369C72.6816 42.5264 72.2656 42.3711 71.7266 42.3711ZM82.7217 42.8721C82.376 42.8252 82.0713 42.8018 81.8076 42.8018C80.8467 42.8018 80.2168 43.127 79.918 43.7773V50H77.3779V40.4902H79.7773L79.8477 41.624C80.3574 40.751 81.0635 40.3145 81.9658 40.3145C82.2471 40.3145 82.5107 40.3525 82.7568 40.4287L82.7217 42.8721ZM87.4326 38.1523V40.4902H89.0586V42.3535H87.4326V47.0996C87.4326 47.4512 87.5 47.7031 87.6348 47.8555C87.7695 48.0078 88.0273 48.084 88.4082 48.084C88.6895 48.084 88.9385 48.0635 89.1553 48.0225V49.9473C88.6572 50.0996 88.1445 50.1758 87.6172 50.1758C85.8359 50.1758 84.9277 49.2764 84.8926 47.4775V42.3535H83.5039V40.4902H84.8926V38.1523H87.4326ZM95.624 47.3721C95.624 47.0615 95.4688 46.8184 95.1582 46.6426C94.8535 46.4609 94.3613 46.2998 93.6816 46.1592C91.4199 45.6846 90.2891 44.7236 90.2891 43.2764C90.2891 42.4326 90.6377 41.7295 91.335 41.167C92.0381 40.5986 92.9551 40.3145 94.0859 40.3145C95.293 40.3145 96.2568 40.5986 96.9775 41.167C97.7041 41.7354 98.0674 42.4736 98.0674 43.3818H95.5273C95.5273 43.0186 95.4102 42.7197 95.1758 42.4854C94.9414 42.2451 94.5752 42.125 94.0771 42.125C93.6494 42.125 93.3184 42.2217 93.084 42.415C92.8496 42.6084 92.7324 42.8545 92.7324 43.1533C92.7324 43.4346 92.8643 43.6631 93.1279 43.8389C93.3975 44.0088 93.8486 44.1582 94.4814 44.2871C95.1143 44.4102 95.6475 44.5508 96.0811 44.709C97.4229 45.2012 98.0938 46.0537 98.0938 47.2666C98.0938 48.1338 97.7217 48.8369 96.9775 49.376C96.2334 49.9092 95.2725 50.1758 94.0947 50.1758C93.2979 50.1758 92.5889 50.0352 91.9678 49.7539C91.3525 49.4668 90.8691 49.0771 90.5176 48.585C90.166 48.0869 89.9902 47.5508 89.9902 46.9766H92.3984C92.4219 47.4277 92.5889 47.7734 92.8994 48.0137C93.21 48.2539 93.626 48.374 94.1475 48.374C94.6338 48.374 95 48.2832 95.2461 48.1016C95.498 47.9141 95.624 47.6709 95.624 47.3721Z" fill="#020124"/>
<circle cx="68" cy="63" r="4" fill="#852417"/>
</svg>
