<svg width="64" height="33" viewBox="0 0 64 33" fill="none" xmlns="http://www.w3.org/2000/svg">
<path d="M16.5522 2H2V30.1818H16.5522M47.4478 2H62V30.1818H47.4478" stroke="#043535" stroke-width="4"/>
<path d="M8.75 12.8904V8.94897H9.91797V12.8904C9.91797 13.2706 9.83464 13.5974 9.66797 13.8708C9.5013 14.1417 9.27344 14.35 8.98438 14.4958C8.69792 14.6417 8.375 14.7146 8.01562 14.7146C7.64323 14.7146 7.3138 14.6521 7.02734 14.5271C6.74089 14.4021 6.51562 14.2107 6.35156 13.9529C6.1875 13.6925 6.10547 13.363 6.10547 12.9646H7.28125C7.28125 13.1729 7.3099 13.3383 7.36719 13.4607C7.42708 13.5831 7.51172 13.6703 7.62109 13.7224C7.73047 13.7745 7.86198 13.8005 8.01562 13.8005C8.16406 13.8005 8.29297 13.7654 8.40234 13.6951C8.51172 13.6248 8.59635 13.5219 8.65625 13.3865C8.71875 13.2511 8.75 13.0857 8.75 12.8904ZM12.793 14.7146C12.4648 14.7146 12.1706 14.6625 11.9102 14.5583C11.6497 14.4516 11.4284 14.3044 11.2461 14.1169C11.0664 13.9294 10.9284 13.712 10.832 13.4646C10.7357 13.2146 10.6875 12.949 10.6875 12.6677V12.5115C10.6875 12.1912 10.7331 11.8982 10.8242 11.6326C10.9154 11.3669 11.0456 11.1365 11.2148 10.9412C11.3867 10.7458 11.5951 10.5961 11.8398 10.4919C12.0846 10.3852 12.3607 10.3318 12.668 10.3318C12.9674 10.3318 13.2331 10.3813 13.4648 10.4802C13.6966 10.5792 13.8906 10.7198 14.0469 10.9021C14.2057 11.0844 14.3255 11.3031 14.4062 11.5583C14.487 11.811 14.5273 12.0922 14.5273 12.4021V12.8708H11.168V12.1208H13.4219V12.0349C13.4219 11.8787 13.3932 11.7393 13.3359 11.6169C13.2812 11.4919 13.1979 11.393 13.0859 11.3201C12.974 11.2472 12.8307 11.2107 12.6562 11.2107C12.5078 11.2107 12.3802 11.2432 12.2734 11.3083C12.1667 11.3735 12.0794 11.4646 12.0117 11.5818C11.9466 11.699 11.8971 11.837 11.8633 11.9958C11.832 12.1521 11.8164 12.324 11.8164 12.5115V12.6677C11.8164 12.837 11.8398 12.9932 11.8867 13.1365C11.9362 13.2797 12.0052 13.4034 12.0938 13.5076C12.1849 13.6117 12.2943 13.6925 12.4219 13.7498C12.5521 13.807 12.6992 13.8357 12.8633 13.8357C13.0664 13.8357 13.2552 13.7966 13.4297 13.7185C13.6068 13.6378 13.7591 13.5167 13.8867 13.3552L14.4336 13.949C14.3451 14.0766 14.224 14.199 14.0703 14.3162C13.9193 14.4333 13.737 14.5297 13.5234 14.6052C13.3099 14.6781 13.0664 14.7146 12.793 14.7146ZM16.2695 11.3123V14.6365H15.1445V10.4099H16.1992L16.2695 11.3123ZM16.1055 12.3748H15.8008C15.8008 12.0623 15.8411 11.781 15.9219 11.531C16.0026 11.2784 16.1159 11.0636 16.2617 10.8865C16.4076 10.7068 16.5807 10.5701 16.7812 10.4763C16.9844 10.38 17.2109 10.3318 17.4609 10.3318C17.6589 10.3318 17.8398 10.3604 18.0039 10.4177C18.168 10.475 18.3086 10.5662 18.4258 10.6912C18.5456 10.8162 18.6367 10.9815 18.6992 11.1873C18.7643 11.393 18.7969 11.6443 18.7969 11.9412V14.6365H17.6641V11.9373C17.6641 11.7498 17.638 11.6039 17.5859 11.4998C17.5339 11.3956 17.457 11.3227 17.3555 11.281C17.2565 11.2367 17.1341 11.2146 16.9883 11.2146C16.8372 11.2146 16.7057 11.2445 16.5938 11.3044C16.4844 11.3643 16.3932 11.4477 16.3203 11.5544C16.25 11.6586 16.1966 11.781 16.1602 11.9216C16.1237 12.0623 16.1055 12.2133 16.1055 12.3748ZM20.8398 10.4099V14.6365H19.7109V10.4099H20.8398ZM19.6406 9.30835C19.6406 9.14429 19.6979 9.00887 19.8125 8.9021C19.9271 8.79533 20.0807 8.74194 20.2734 8.74194C20.4635 8.74194 20.6159 8.79533 20.7305 8.9021C20.8477 9.00887 20.9062 9.14429 20.9062 9.30835C20.9062 9.47241 20.8477 9.60783 20.7305 9.7146C20.6159 9.82137 20.4635 9.87476 20.2734 9.87476C20.0807 9.87476 19.9271 9.82137 19.8125 9.7146C19.6979 9.60783 19.6406 9.47241 19.6406 9.30835ZM23.2031 14.6365H22.0703V10.0349C22.0703 9.7146 22.1328 9.44507 22.2578 9.22632C22.3854 9.00496 22.5638 8.8383 22.793 8.72632C23.0247 8.61174 23.2995 8.55444 23.6172 8.55444C23.7214 8.55444 23.8216 8.56226 23.918 8.57788C24.0143 8.5909 24.1081 8.60783 24.1992 8.62866L24.1875 9.47632C24.138 9.4633 24.0859 9.45418 24.0312 9.44897C23.9766 9.44377 23.9128 9.44116 23.8398 9.44116C23.7044 9.44116 23.5885 9.4646 23.4922 9.51147C23.3984 9.55575 23.3268 9.62215 23.2773 9.71069C23.2279 9.79924 23.2031 9.90731 23.2031 10.0349V14.6365ZM24.0469 10.4099V11.2068H21.4414V10.4099H24.0469ZM28.9141 12.6091H27.4648V11.6951H28.9141C29.138 11.6951 29.3203 11.6586 29.4609 11.5857C29.6016 11.5102 29.7044 11.406 29.7695 11.2732C29.8346 11.1404 29.8672 10.9906 29.8672 10.824C29.8672 10.6547 29.8346 10.4972 29.7695 10.3513C29.7044 10.2055 29.6016 10.0883 29.4609 9.99976C29.3203 9.91121 29.138 9.86694 28.9141 9.86694H27.8711V14.6365H26.6992V8.94897H28.9141C29.3594 8.94897 29.7409 9.0297 30.0586 9.19116C30.3789 9.35002 30.6237 9.57007 30.793 9.85132C30.9622 10.1326 31.0469 10.4542 31.0469 10.8162C31.0469 11.1833 30.9622 11.5011 30.793 11.7693C30.6237 12.0375 30.3789 12.2445 30.0586 12.3904C29.7409 12.5362 29.3594 12.6091 28.9141 12.6091ZM34.0195 13.6833V11.8005C34.0195 11.6651 33.9974 11.5492 33.9531 11.4529C33.9089 11.3539 33.8398 11.2771 33.7461 11.2224C33.6549 11.1677 33.5365 11.1404 33.3906 11.1404C33.2656 11.1404 33.1576 11.1625 33.0664 11.2068C32.9753 11.2485 32.9049 11.3097 32.8555 11.3904C32.806 11.4685 32.7812 11.561 32.7812 11.6677H31.6562C31.6562 11.488 31.6979 11.3175 31.7812 11.156C31.8646 10.9945 31.9857 10.8526 32.1445 10.7302C32.3034 10.6052 32.4922 10.5076 32.7109 10.4373C32.9323 10.3669 33.1797 10.3318 33.4531 10.3318C33.7812 10.3318 34.0729 10.3865 34.3281 10.4958C34.5833 10.6052 34.7839 10.7693 34.9297 10.988C35.0781 11.2068 35.1523 11.4802 35.1523 11.8083V13.6169C35.1523 13.8487 35.1667 14.0388 35.1953 14.1873C35.224 14.3331 35.2656 14.4607 35.3203 14.5701V14.6365H34.1836C34.1289 14.5219 34.0872 14.3787 34.0586 14.2068C34.0326 14.0323 34.0195 13.8578 34.0195 13.6833ZM34.168 12.0623L34.1758 12.699H33.5469C33.3984 12.699 33.2695 12.7159 33.1602 12.7498C33.0508 12.7836 32.9609 12.8318 32.8906 12.8943C32.8203 12.9542 32.7682 13.0245 32.7344 13.1052C32.7031 13.186 32.6875 13.2745 32.6875 13.3708C32.6875 13.4672 32.7096 13.5544 32.7539 13.6326C32.7982 13.7081 32.862 13.768 32.9453 13.8123C33.0286 13.8539 33.1263 13.8748 33.2383 13.8748C33.4076 13.8748 33.5547 13.8409 33.6797 13.7732C33.8047 13.7055 33.901 13.6222 33.9688 13.5232C34.0391 13.4242 34.0755 13.3305 34.0781 13.2419L34.375 13.7185C34.3333 13.8253 34.276 13.936 34.2031 14.0505C34.1328 14.1651 34.043 14.2732 33.9336 14.3748C33.8242 14.4737 33.6927 14.5557 33.5391 14.6208C33.3854 14.6833 33.2031 14.7146 32.9922 14.7146C32.724 14.7146 32.4805 14.6612 32.2617 14.5544C32.0456 14.4451 31.8737 14.2953 31.7461 14.1052C31.6211 13.9125 31.5586 13.6938 31.5586 13.449C31.5586 13.2276 31.6003 13.031 31.6836 12.8591C31.7669 12.6873 31.8893 12.5427 32.0508 12.4255C32.2148 12.3057 32.4193 12.2159 32.6641 12.156C32.9089 12.0935 33.1927 12.0623 33.5156 12.0623H34.168ZM37.207 10.4099V14.6365H36.0781V10.4099H37.207ZM36.0078 9.30835C36.0078 9.14429 36.0651 9.00887 36.1797 8.9021C36.2943 8.79533 36.4479 8.74194 36.6406 8.74194C36.8307 8.74194 36.9831 8.79533 37.0977 8.9021C37.2148 9.00887 37.2734 9.14429 37.2734 9.30835C37.2734 9.47241 37.2148 9.60783 37.0977 9.7146C36.9831 9.82137 36.8307 9.87476 36.6406 9.87476C36.4479 9.87476 36.2943 9.82137 36.1797 9.7146C36.0651 9.60783 36.0078 9.47241 36.0078 9.30835ZM39.2383 11.3123V14.6365H38.1133V10.4099H39.168L39.2383 11.3123ZM39.0742 12.3748H38.7695C38.7695 12.0623 38.8099 11.781 38.8906 11.531C38.9714 11.2784 39.0846 11.0636 39.2305 10.8865C39.3763 10.7068 39.5495 10.5701 39.75 10.4763C39.9531 10.38 40.1797 10.3318 40.4297 10.3318C40.6276 10.3318 40.8086 10.3604 40.9727 10.4177C41.1367 10.475 41.2773 10.5662 41.3945 10.6912C41.5143 10.8162 41.6055 10.9815 41.668 11.1873C41.7331 11.393 41.7656 11.6443 41.7656 11.9412V14.6365H40.6328V11.9373C40.6328 11.7498 40.6068 11.6039 40.5547 11.4998C40.5026 11.3956 40.4258 11.3227 40.3242 11.281C40.2253 11.2367 40.1029 11.2146 39.957 11.2146C39.806 11.2146 39.6745 11.2445 39.5625 11.3044C39.4531 11.3643 39.362 11.4477 39.2891 11.5544C39.2188 11.6586 39.1654 11.781 39.1289 11.9216C39.0924 12.0623 39.0742 12.2133 39.0742 12.3748ZM44.6914 10.4099V11.2068H42.2305V10.4099H44.6914ZM42.8398 9.36694H43.9648V13.363C43.9648 13.4854 43.9805 13.5792 44.0117 13.6443C44.0456 13.7094 44.0951 13.755 44.1602 13.781C44.2253 13.8044 44.3073 13.8162 44.4062 13.8162C44.4766 13.8162 44.5391 13.8136 44.5938 13.8083C44.651 13.8005 44.6992 13.7927 44.7383 13.7849L44.7422 14.613C44.6458 14.6443 44.5417 14.669 44.4297 14.6873C44.3177 14.7055 44.194 14.7146 44.0586 14.7146C43.8112 14.7146 43.5951 14.6742 43.4102 14.5935C43.2279 14.5102 43.0872 14.3774 42.9883 14.1951C42.8893 14.0128 42.8398 13.7732 42.8398 13.4763V9.36694ZM46.5195 10.4099V14.6365H45.3906V10.4099H46.5195ZM45.3203 9.30835C45.3203 9.14429 45.3776 9.00887 45.4922 8.9021C45.6068 8.79533 45.7604 8.74194 45.9531 8.74194C46.1432 8.74194 46.2956 8.79533 46.4102 8.9021C46.5273 9.00887 46.5859 9.14429 46.5859 9.30835C46.5859 9.47241 46.5273 9.60783 46.4102 9.7146C46.2956 9.82137 46.1432 9.87476 45.9531 9.87476C45.7604 9.87476 45.6068 9.82137 45.4922 9.7146C45.3776 9.60783 45.3203 9.47241 45.3203 9.30835ZM48.5508 11.3123V14.6365H47.4258V10.4099H48.4805L48.5508 11.3123ZM48.3867 12.3748H48.082C48.082 12.0623 48.1224 11.781 48.2031 11.531C48.2839 11.2784 48.3971 11.0636 48.543 10.8865C48.6888 10.7068 48.862 10.5701 49.0625 10.4763C49.2656 10.38 49.4922 10.3318 49.7422 10.3318C49.9401 10.3318 50.1211 10.3604 50.2852 10.4177C50.4492 10.475 50.5898 10.5662 50.707 10.6912C50.8268 10.8162 50.918 10.9815 50.9805 11.1873C51.0456 11.393 51.0781 11.6443 51.0781 11.9412V14.6365H49.9453V11.9373C49.9453 11.7498 49.9193 11.6039 49.8672 11.4998C49.8151 11.3956 49.7383 11.3227 49.6367 11.281C49.5378 11.2367 49.4154 11.2146 49.2695 11.2146C49.1185 11.2146 48.987 11.2445 48.875 11.3044C48.7656 11.3643 48.6745 11.4477 48.6016 11.5544C48.5312 11.6586 48.4779 11.781 48.4414 11.9216C48.4049 12.0623 48.3867 12.2133 48.3867 12.3748ZM54.6094 10.4099H55.6289V14.4958C55.6289 14.8813 55.543 15.2081 55.3711 15.4763C55.2018 15.7472 54.9648 15.9516 54.6602 16.0896C54.3555 16.2302 54.0013 16.3005 53.5977 16.3005C53.4206 16.3005 53.2331 16.2771 53.0352 16.2302C52.8398 16.1833 52.6523 16.1104 52.4727 16.0115C52.2956 15.9125 52.1471 15.7875 52.0273 15.6365L52.5234 14.9724C52.6536 15.1235 52.8047 15.2406 52.9766 15.324C53.1484 15.4099 53.3385 15.4529 53.5469 15.4529C53.75 15.4529 53.9219 15.4151 54.0625 15.3396C54.2031 15.2667 54.3112 15.1586 54.3867 15.0154C54.4622 14.8748 54.5 14.7042 54.5 14.5037V11.3865L54.6094 10.4099ZM51.7656 12.574V12.4919C51.7656 12.169 51.8047 11.8761 51.8828 11.613C51.9635 11.3474 52.0768 11.1195 52.2227 10.9294C52.3711 10.7393 52.5508 10.5922 52.7617 10.488C52.9727 10.3839 53.2109 10.3318 53.4766 10.3318C53.7578 10.3318 53.9935 10.3839 54.1836 10.488C54.3737 10.5922 54.5299 10.7406 54.6523 10.9333C54.7747 11.1235 54.8698 11.3487 54.9375 11.6091C55.0078 11.8669 55.0625 12.1495 55.1016 12.4568V12.6365C55.0625 12.9307 55.0039 13.2042 54.9258 13.4568C54.8477 13.7094 54.7448 13.9307 54.6172 14.1208C54.4896 14.3083 54.3307 14.4542 54.1406 14.5583C53.9531 14.6625 53.7292 14.7146 53.4688 14.7146C53.2083 14.7146 52.9727 14.6612 52.7617 14.5544C52.5534 14.4477 52.375 14.2979 52.2266 14.1052C52.0781 13.9125 51.9635 13.686 51.8828 13.4255C51.8047 13.1651 51.7656 12.8813 51.7656 12.574ZM52.8906 12.4919V12.574C52.8906 12.7485 52.9076 12.9112 52.9414 13.0623C52.9753 13.2133 53.0273 13.3474 53.0977 13.4646C53.1706 13.5792 53.2604 13.669 53.3672 13.7341C53.4766 13.7966 53.6055 13.8279 53.7539 13.8279C53.9596 13.8279 54.1276 13.7849 54.2578 13.699C54.388 13.6104 54.4857 13.4893 54.5508 13.3357C54.6159 13.182 54.6536 13.005 54.6641 12.8044V12.2927C54.6589 12.1287 54.6367 11.9815 54.5977 11.8513C54.5586 11.7185 54.5039 11.6052 54.4336 11.5115C54.3633 11.4177 54.2721 11.3448 54.1602 11.2927C54.0482 11.2406 53.9154 11.2146 53.7617 11.2146C53.6133 11.2146 53.4844 11.2485 53.375 11.3162C53.2682 11.3813 53.1784 11.4711 53.1055 11.5857C53.0352 11.7003 52.9818 11.8357 52.9453 11.9919C52.9089 12.1456 52.8906 12.3123 52.8906 12.4919ZM22.6562 22.7224V23.6365H19.6289V22.7224H22.6562ZM20.0117 17.949V23.6365H18.8398V17.949H20.0117ZM22.2617 20.2654V21.156H19.6289V20.2654H22.2617ZM22.6523 17.949V18.8669H19.6289V17.949H22.6523ZM24.1758 19.4099L24.875 20.6951L25.5938 19.4099H26.793L25.5977 21.4763L26.8477 23.6365H25.6445L24.8828 22.2771L24.1211 23.6365H22.918L24.168 21.4763L22.9727 19.4099H24.1758ZM28.4648 20.2224V25.2615H27.3398V19.4099H28.3828L28.4648 20.2224ZM31.1406 21.4763V21.5583C31.1406 21.8656 31.1042 22.1508 31.0312 22.4138C30.9609 22.6768 30.8568 22.906 30.7188 23.1013C30.5807 23.294 30.4089 23.4451 30.2031 23.5544C30 23.6612 29.7656 23.7146 29.5 23.7146C29.2422 23.7146 29.0182 23.6625 28.8281 23.5583C28.638 23.4542 28.4779 23.3083 28.3477 23.1208C28.2201 22.9307 28.1172 22.7107 28.0391 22.4607C27.9609 22.2107 27.901 21.9425 27.8594 21.656V21.4412C27.901 21.1339 27.9609 20.8526 28.0391 20.5974C28.1172 20.3396 28.2201 20.1169 28.3477 19.9294C28.4779 19.7393 28.6367 19.5922 28.8242 19.488C29.0143 19.3839 29.237 19.3318 29.4922 19.3318C29.7604 19.3318 29.9961 19.3826 30.1992 19.4841C30.4049 19.5857 30.5768 19.7315 30.7148 19.9216C30.8555 20.1117 30.9609 20.3383 31.0312 20.6013C31.1042 20.8643 31.1406 21.156 31.1406 21.4763ZM30.0117 21.5583V21.4763C30.0117 21.2966 29.9961 21.1313 29.9648 20.9802C29.9362 20.8266 29.8893 20.6925 29.8242 20.5779C29.7617 20.4633 29.6784 20.3748 29.5742 20.3123C29.4727 20.2472 29.349 20.2146 29.2031 20.2146C29.0495 20.2146 28.918 20.2393 28.8086 20.2888C28.7018 20.3383 28.6146 20.4099 28.5469 20.5037C28.4792 20.5974 28.4284 20.7094 28.3945 20.8396C28.3607 20.9698 28.3398 21.1169 28.332 21.281V21.824C28.3451 22.0167 28.3815 22.1899 28.4414 22.3435C28.5013 22.4945 28.5938 22.6143 28.7188 22.7029C28.8438 22.7914 29.0078 22.8357 29.2109 22.8357C29.3594 22.8357 29.4844 22.8031 29.5859 22.738C29.6875 22.6703 29.7695 22.5779 29.832 22.4607C29.8971 22.3435 29.9427 22.2081 29.9688 22.0544C29.9974 21.9008 30.0117 21.7354 30.0117 21.5583ZM33.7852 23.7146C33.457 23.7146 33.1628 23.6625 32.9023 23.5583C32.6419 23.4516 32.4206 23.3044 32.2383 23.1169C32.0586 22.9294 31.9206 22.712 31.8242 22.4646C31.7279 22.2146 31.6797 21.949 31.6797 21.6677V21.5115C31.6797 21.1912 31.7253 20.8982 31.8164 20.6326C31.9076 20.3669 32.0378 20.1365 32.207 19.9412C32.3789 19.7458 32.5872 19.5961 32.832 19.4919C33.0768 19.3852 33.3529 19.3318 33.6602 19.3318C33.9596 19.3318 34.2253 19.3813 34.457 19.4802C34.6888 19.5792 34.8828 19.7198 35.0391 19.9021C35.1979 20.0844 35.3177 20.3031 35.3984 20.5583C35.4792 20.811 35.5195 21.0922 35.5195 21.4021V21.8708H32.1602V21.1208H34.4141V21.0349C34.4141 20.8787 34.3854 20.7393 34.3281 20.6169C34.2734 20.4919 34.1901 20.393 34.0781 20.3201C33.9661 20.2472 33.8229 20.2107 33.6484 20.2107C33.5 20.2107 33.3724 20.2432 33.2656 20.3083C33.1589 20.3735 33.0716 20.4646 33.0039 20.5818C32.9388 20.699 32.8893 20.837 32.8555 20.9958C32.8242 21.1521 32.8086 21.324 32.8086 21.5115V21.6677C32.8086 21.837 32.832 21.9932 32.8789 22.1365C32.9284 22.2797 32.9974 22.4034 33.0859 22.5076C33.1771 22.6117 33.2865 22.6925 33.4141 22.7498C33.5443 22.807 33.6914 22.8357 33.8555 22.8357C34.0586 22.8357 34.2474 22.7966 34.4219 22.7185C34.599 22.6378 34.7513 22.5167 34.8789 22.3552L35.4258 22.949C35.3372 23.0766 35.2161 23.199 35.0625 23.3162C34.9115 23.4333 34.7292 23.5297 34.5156 23.6052C34.3021 23.6781 34.0586 23.7146 33.7852 23.7146ZM37.2852 20.3318V23.6365H36.1602V19.4099H37.2188L37.2852 20.3318ZM38.5586 19.3826L38.5391 20.4255C38.4844 20.4177 38.418 20.4112 38.3398 20.406C38.2643 20.3982 38.1953 20.3943 38.1328 20.3943C37.974 20.3943 37.8359 20.4151 37.7188 20.4568C37.6042 20.4958 37.5078 20.5544 37.4297 20.6326C37.3542 20.7107 37.2969 20.8057 37.2578 20.9177C37.2214 21.0297 37.2005 21.1573 37.1953 21.3005L36.9688 21.2302C36.9688 20.9568 36.9961 20.7055 37.0508 20.4763C37.1055 20.2445 37.1849 20.0427 37.2891 19.8708C37.3958 19.699 37.526 19.5662 37.6797 19.4724C37.8333 19.3787 38.0091 19.3318 38.207 19.3318C38.2695 19.3318 38.3333 19.337 38.3984 19.3474C38.4635 19.3552 38.5169 19.3669 38.5586 19.3826ZM41.3555 19.4099V20.2068H38.8945V19.4099H41.3555ZM39.5039 18.3669H40.6289V22.363C40.6289 22.4854 40.6445 22.5792 40.6758 22.6443C40.7096 22.7094 40.7591 22.755 40.8242 22.781C40.8893 22.8044 40.9714 22.8162 41.0703 22.8162C41.1406 22.8162 41.2031 22.8136 41.2578 22.8083C41.3151 22.8005 41.3633 22.7927 41.4023 22.7849L41.4062 23.613C41.3099 23.6443 41.2057 23.669 41.0938 23.6873C40.9818 23.7055 40.8581 23.7146 40.7227 23.7146C40.4753 23.7146 40.2591 23.6742 40.0742 23.5935C39.8919 23.5102 39.7513 23.3774 39.6523 23.1951C39.5534 23.0128 39.5039 22.7732 39.5039 22.4763V18.3669ZM44.2812 22.4685C44.2812 22.3878 44.2578 22.3149 44.2109 22.2498C44.1641 22.1847 44.0768 22.1248 43.9492 22.0701C43.8242 22.0128 43.6432 21.9607 43.4062 21.9138C43.1927 21.8669 42.9935 21.8083 42.8086 21.738C42.6263 21.6651 42.4674 21.5779 42.332 21.4763C42.1992 21.3748 42.0951 21.255 42.0195 21.1169C41.944 20.9763 41.9062 20.8162 41.9062 20.6365C41.9062 20.4594 41.944 20.2927 42.0195 20.1365C42.0977 19.9802 42.2083 19.8422 42.3516 19.7224C42.4974 19.6 42.6745 19.505 42.8828 19.4373C43.0938 19.3669 43.3307 19.3318 43.5938 19.3318C43.9609 19.3318 44.276 19.3904 44.5391 19.5076C44.8047 19.6248 45.0078 19.7862 45.1484 19.9919C45.2917 20.1951 45.3633 20.4268 45.3633 20.6873H44.2383C44.2383 20.5779 44.2148 20.4802 44.168 20.3943C44.1237 20.3057 44.0534 20.2367 43.957 20.1873C43.8633 20.1352 43.7409 20.1091 43.5898 20.1091C43.4648 20.1091 43.3568 20.1313 43.2656 20.1755C43.1745 20.2172 43.1042 20.2745 43.0547 20.3474C43.0078 20.4177 42.9844 20.4958 42.9844 20.5818C42.9844 20.6469 42.9974 20.7055 43.0234 20.7576C43.0521 20.807 43.0977 20.8526 43.1602 20.8943C43.2227 20.936 43.3034 20.975 43.4023 21.0115C43.5039 21.0453 43.6289 21.0766 43.7773 21.1052C44.082 21.1677 44.3542 21.2498 44.5938 21.3513C44.8333 21.4503 45.0234 21.5857 45.1641 21.7576C45.3047 21.9268 45.375 22.1495 45.375 22.4255C45.375 22.613 45.3333 22.7849 45.25 22.9412C45.1667 23.0974 45.0469 23.2341 44.8906 23.3513C44.7344 23.4659 44.5469 23.5557 44.3281 23.6208C44.112 23.6833 43.8685 23.7146 43.5977 23.7146C43.2044 23.7146 42.8711 23.6443 42.5977 23.5037C42.3268 23.363 42.1211 23.1847 41.9805 22.9685C41.8424 22.7498 41.7734 22.5258 41.7734 22.2966H42.8398C42.8451 22.4503 42.8841 22.574 42.957 22.6677C43.0326 22.7615 43.1276 22.8292 43.2422 22.8708C43.3594 22.9125 43.4857 22.9333 43.6211 22.9333C43.7669 22.9333 43.888 22.9138 43.9844 22.8748C44.0807 22.8331 44.1536 22.7784 44.2031 22.7107C44.2552 22.6404 44.2812 22.5597 44.2812 22.4685Z" fill="#020124"/>
<ellipse cx="31.5" cy="30.6515" rx="2.5" ry="2.34848" fill="#852417"/>
</svg>
