<svg width="78" height="42" viewBox="0 0 78 42" fill="none" xmlns="http://www.w3.org/2000/svg">
<path d="M19.9478 2H2V38.3636H19.9478M58.0522 2H76V38.3636H58.0522" stroke="#D9DD39" stroke-width="4"/>
<path d="M9.93745 16.0903V11.1636H11.3974V16.0903C11.3974 16.5656 11.2932 16.9741 11.0849 17.3159C10.8766 17.6545 10.5917 17.9149 10.2304 18.0972C9.87235 18.2795 9.4687 18.3706 9.01948 18.3706C8.55399 18.3706 8.1422 18.2925 7.78413 18.1362C7.42606 17.98 7.14448 17.7407 6.9394 17.4185C6.73433 17.0929 6.63179 16.6812 6.63179 16.1831H8.10151C8.10151 16.4435 8.13732 16.6502 8.20893 16.8032C8.2838 16.9562 8.3896 17.0653 8.52632 17.1304C8.66304 17.1955 8.82742 17.228 9.01948 17.228C9.20503 17.228 9.36616 17.1841 9.50288 17.0962C9.6396 17.0083 9.74539 16.8797 9.82026 16.7104C9.89839 16.5412 9.93745 16.3345 9.93745 16.0903ZM14.9912 18.3706C14.581 18.3706 14.2132 18.3055 13.8876 18.1753C13.5621 18.0418 13.2854 17.8579 13.0576 17.6235C12.833 17.3892 12.6604 17.1174 12.54 16.8081C12.4195 16.4956 12.3593 16.1636 12.3593 15.812V15.6167C12.3593 15.2163 12.4163 14.8501 12.5302 14.5181C12.6442 14.186 12.8069 13.8979 13.0185 13.6538C13.2333 13.4097 13.4938 13.2225 13.7998 13.0923C14.1057 12.9588 14.4508 12.8921 14.8349 12.8921C15.2093 12.8921 15.5413 12.9539 15.831 13.0776C16.1207 13.2013 16.3632 13.3771 16.5585 13.605C16.7571 13.8328 16.9069 14.1063 17.0078 14.4253C17.1087 14.741 17.1591 15.0926 17.1591 15.48V16.0659H12.9599V15.1284H15.7773V15.021C15.7773 14.8257 15.7415 14.6515 15.6699 14.4985C15.6015 14.3423 15.4973 14.2186 15.3574 14.1274C15.2174 14.0363 15.0384 13.9907 14.8203 13.9907C14.6347 13.9907 14.4752 14.0314 14.3417 14.1128C14.2083 14.1942 14.0992 14.3081 14.0146 14.4546C13.9332 14.6011 13.8714 14.7736 13.8291 14.9722C13.79 15.1675 13.7705 15.3823 13.7705 15.6167V15.812C13.7705 16.0236 13.7998 16.2189 13.8583 16.3979C13.9202 16.577 14.0065 16.7316 14.1171 16.8618C14.2311 16.992 14.3678 17.0929 14.5273 17.1646C14.6901 17.2362 14.874 17.272 15.0791 17.272C15.333 17.272 15.569 17.2231 15.7871 17.1255C16.0084 17.0246 16.1988 16.8732 16.3583 16.6714L17.0419 17.4136C16.9313 17.5731 16.7799 17.7261 16.5878 17.8726C16.399 18.019 16.1712 18.1395 15.9042 18.2339C15.6373 18.325 15.333 18.3706 14.9912 18.3706ZM19.3369 14.1177V18.2729H17.9306V12.9897H19.249L19.3369 14.1177ZM19.1318 15.4458H18.7509C18.7509 15.0552 18.8014 14.7036 18.9023 14.3911C19.0032 14.0754 19.1448 13.8068 19.3271 13.5854C19.5094 13.3608 19.7259 13.1899 19.9765 13.0728C20.2304 12.9523 20.5136 12.8921 20.8261 12.8921C21.0735 12.8921 21.2998 12.9279 21.5048 12.9995C21.7099 13.0711 21.8857 13.1851 22.0322 13.3413C22.1819 13.4976 22.2958 13.7043 22.374 13.9614C22.4554 14.2186 22.496 14.5327 22.496 14.9038V18.2729H21.08V14.8989C21.08 14.6646 21.0475 14.4823 20.9824 14.3521C20.9173 14.2218 20.8212 14.1307 20.6943 14.0786C20.5706 14.0233 20.4176 13.9956 20.2353 13.9956C20.0465 13.9956 19.8821 14.033 19.7421 14.1079C19.6054 14.1828 19.4915 14.2869 19.4003 14.4204C19.3125 14.5506 19.2457 14.7036 19.2001 14.8794C19.1546 15.0552 19.1318 15.244 19.1318 15.4458ZM25.0498 12.9897V18.2729H23.6386V12.9897H25.0498ZM23.5507 11.6128C23.5507 11.4077 23.6223 11.2384 23.7656 11.105C23.9088 10.9715 24.1009 10.9048 24.3417 10.9048C24.5794 10.9048 24.7698 10.9715 24.913 11.105C25.0595 11.2384 25.1328 11.4077 25.1328 11.6128C25.1328 11.8179 25.0595 11.9871 24.913 12.1206C24.7698 12.2541 24.5794 12.3208 24.3417 12.3208C24.1009 12.3208 23.9088 12.2541 23.7656 12.1206C23.6223 11.9871 23.5507 11.8179 23.5507 11.6128ZM28.0039 18.2729H26.5878V12.521C26.5878 12.1206 26.666 11.7837 26.8222 11.5103C26.9817 11.2336 27.2047 11.0252 27.4912 10.8853C27.7809 10.742 28.1243 10.6704 28.5214 10.6704C28.6516 10.6704 28.777 10.6802 28.8974 10.6997C29.0179 10.716 29.135 10.7371 29.249 10.7632L29.2343 11.8228C29.1725 11.8065 29.1074 11.7951 29.039 11.7886C28.9707 11.7821 28.8909 11.7788 28.7998 11.7788C28.6305 11.7788 28.4856 11.8081 28.3652 11.8667C28.248 11.922 28.1585 12.005 28.0966 12.1157C28.0348 12.2264 28.0039 12.3615 28.0039 12.521V18.2729ZM29.0585 12.9897V13.9858H25.8017V12.9897H29.0585ZM35.1425 15.7388H33.331V14.5962H35.1425C35.4225 14.5962 35.6503 14.5506 35.8261 14.4595C36.0019 14.3651 36.1305 14.2349 36.2119 14.0688C36.2932 13.9028 36.3339 13.7157 36.3339 13.5073C36.3339 13.2957 36.2932 13.0988 36.2119 12.9165C36.1305 12.7342 36.0019 12.5877 35.8261 12.4771C35.6503 12.3664 35.4225 12.311 35.1425 12.311H33.8388V18.2729H32.374V11.1636H35.1425C35.6992 11.1636 36.1761 11.2645 36.5732 11.4663C36.9736 11.6649 37.2796 11.9399 37.4912 12.2915C37.7027 12.6431 37.8085 13.0451 37.8085 13.4976C37.8085 13.9565 37.7027 14.3537 37.4912 14.689C37.2796 15.0243 36.9736 15.283 36.5732 15.4653C36.1761 15.6476 35.6992 15.7388 35.1425 15.7388ZM41.5244 17.0815V14.728C41.5244 14.5588 41.4967 14.4139 41.4414 14.2935C41.386 14.1698 41.2998 14.0737 41.1826 14.0054C41.0686 13.937 40.9205 13.9028 40.7382 13.9028C40.582 13.9028 40.4469 13.9305 40.333 13.9858C40.219 14.0379 40.1311 14.1144 40.0693 14.2153C40.0074 14.313 39.9765 14.4285 39.9765 14.562H38.5703C38.5703 14.3374 38.6223 14.1242 38.7265 13.9224C38.8307 13.7205 38.982 13.5431 39.1806 13.3901C39.3792 13.2339 39.6152 13.1118 39.8886 13.0239C40.1653 12.936 40.4746 12.8921 40.8164 12.8921C41.2265 12.8921 41.5911 12.9604 41.9101 13.0972C42.2291 13.2339 42.4798 13.439 42.6621 13.7124C42.8476 13.9858 42.9404 14.3276 42.9404 14.7378V16.9985C42.9404 17.2882 42.9583 17.5259 42.9941 17.7114C43.0299 17.8937 43.082 18.0532 43.1503 18.1899V18.2729H41.7294C41.6611 18.1297 41.609 17.9507 41.5732 17.7358C41.5406 17.5177 41.5244 17.2996 41.5244 17.0815ZM41.7099 15.0552L41.7197 15.8511H40.9335C40.748 15.8511 40.5869 15.8722 40.4501 15.9146C40.3134 15.9569 40.2011 16.0171 40.1132 16.0952C40.0253 16.1701 39.9602 16.258 39.9179 16.3589C39.8789 16.4598 39.8593 16.5705 39.8593 16.6909C39.8593 16.8114 39.887 16.9204 39.9423 17.0181C39.9977 17.1125 40.0774 17.1873 40.1816 17.2427C40.2858 17.2948 40.4078 17.3208 40.5478 17.3208C40.7594 17.3208 40.9433 17.2785 41.0996 17.1938C41.2558 17.1092 41.3763 17.005 41.4609 16.8813C41.5488 16.7576 41.5944 16.6405 41.5976 16.5298L41.9687 17.1255C41.9166 17.259 41.845 17.3973 41.7539 17.5405C41.666 17.6838 41.5537 17.8188 41.4169 17.9458C41.2802 18.0695 41.1158 18.172 40.9238 18.2534C40.7317 18.3315 40.5039 18.3706 40.2402 18.3706C39.9049 18.3706 39.6005 18.3039 39.3271 18.1704C39.0569 18.0337 38.8421 17.8465 38.6826 17.6089C38.5263 17.368 38.4482 17.0946 38.4482 16.7886C38.4482 16.5119 38.5003 16.2661 38.6044 16.0513C38.7086 15.8364 38.8616 15.6558 39.0634 15.5093C39.2685 15.3595 39.524 15.2472 39.83 15.1724C40.136 15.0942 40.4908 15.0552 40.8945 15.0552H41.7099ZM45.5087 12.9897V18.2729H44.0976V12.9897H45.5087ZM44.0097 11.6128C44.0097 11.4077 44.0813 11.2384 44.2246 11.105C44.3678 10.9715 44.5598 10.9048 44.8007 10.9048C45.0384 10.9048 45.2288 10.9715 45.372 11.105C45.5185 11.2384 45.5917 11.4077 45.5917 11.6128C45.5917 11.8179 45.5185 11.9871 45.372 12.1206C45.2288 12.2541 45.0384 12.3208 44.8007 12.3208C44.5598 12.3208 44.3678 12.2541 44.2246 12.1206C44.0813 11.9871 44.0097 11.8179 44.0097 11.6128ZM48.0478 14.1177V18.2729H46.6416V12.9897H47.9599L48.0478 14.1177ZM47.8427 15.4458H47.4619C47.4619 15.0552 47.5123 14.7036 47.6132 14.3911C47.7141 14.0754 47.8557 13.8068 48.038 13.5854C48.2203 13.3608 48.4368 13.1899 48.6875 13.0728C48.9414 12.9523 49.2246 12.8921 49.5371 12.8921C49.7845 12.8921 50.0107 12.9279 50.2158 12.9995C50.4208 13.0711 50.5966 13.1851 50.7431 13.3413C50.8929 13.4976 51.0068 13.7043 51.0849 13.9614C51.1663 14.2186 51.207 14.5327 51.207 14.9038V18.2729H49.791V14.8989C49.791 14.6646 49.7584 14.4823 49.6933 14.3521C49.6282 14.2218 49.5322 14.1307 49.4052 14.0786C49.2815 14.0233 49.1285 13.9956 48.9462 13.9956C48.7574 13.9956 48.593 14.033 48.4531 14.1079C48.3164 14.1828 48.2024 14.2869 48.1113 14.4204C48.0234 14.5506 47.9567 14.7036 47.9111 14.8794C47.8655 15.0552 47.8427 15.244 47.8427 15.4458ZM54.8642 12.9897V13.9858H51.788V12.9897H54.8642ZM52.5498 11.686H53.956V16.6812C53.956 16.8341 53.9755 16.9513 54.0146 17.0327C54.0569 17.1141 54.1188 17.1711 54.2001 17.2036C54.2815 17.2329 54.3841 17.2476 54.5078 17.2476C54.5957 17.2476 54.6738 17.2443 54.7421 17.2378C54.8138 17.228 54.874 17.2183 54.9228 17.2085L54.9277 18.2437C54.8072 18.2827 54.677 18.3136 54.5371 18.3364C54.3971 18.3592 54.2425 18.3706 54.0732 18.3706C53.7639 18.3706 53.4938 18.3201 53.2626 18.2192C53.0348 18.1151 52.859 17.9491 52.7353 17.7212C52.6116 17.4933 52.5498 17.1938 52.5498 16.8228V11.686ZM57.1494 12.9897V18.2729H55.7382V12.9897H57.1494ZM55.6503 11.6128C55.6503 11.4077 55.722 11.2384 55.8652 11.105C56.0084 10.9715 56.2005 10.9048 56.4414 10.9048C56.679 10.9048 56.8694 10.9715 57.0126 11.105C57.1591 11.2384 57.2324 11.4077 57.2324 11.6128C57.2324 11.8179 57.1591 11.9871 57.0126 12.1206C56.8694 12.2541 56.679 12.3208 56.4414 12.3208C56.2005 12.3208 56.0084 12.2541 55.8652 12.1206C55.722 11.9871 55.6503 11.8179 55.6503 11.6128ZM59.6884 14.1177V18.2729H58.2822V12.9897H59.6005L59.6884 14.1177ZM59.4833 15.4458H59.1025C59.1025 15.0552 59.1529 14.7036 59.2539 14.3911C59.3548 14.0754 59.4964 13.8068 59.6787 13.5854C59.861 13.3608 60.0774 13.1899 60.3281 13.0728C60.582 12.9523 60.8652 12.8921 61.1777 12.8921C61.4251 12.8921 61.6513 12.9279 61.8564 12.9995C62.0615 13.0711 62.2373 13.1851 62.3837 13.3413C62.5335 13.4976 62.6474 13.7043 62.7255 13.9614C62.8069 14.2186 62.8476 14.5327 62.8476 14.9038V18.2729H61.4316V14.8989C61.4316 14.6646 61.399 14.4823 61.3339 14.3521C61.2688 14.2218 61.1728 14.1307 61.0458 14.0786C60.9222 14.0233 60.7692 13.9956 60.5869 13.9956C60.3981 13.9956 60.2337 14.033 60.0937 14.1079C59.957 14.1828 59.843 14.2869 59.7519 14.4204C59.664 14.5506 59.5973 14.7036 59.5517 14.8794C59.5061 15.0552 59.4833 15.244 59.4833 15.4458ZM67.2617 12.9897H68.5361V18.0972C68.5361 18.5789 68.4287 18.9875 68.2138 19.3228C68.0022 19.6613 67.706 19.9168 67.3251 20.0894C66.9443 20.2651 66.5016 20.353 65.997 20.353C65.7757 20.353 65.5413 20.3237 65.2939 20.2651C65.0498 20.2065 64.8154 20.1154 64.5908 19.9917C64.3694 19.868 64.1839 19.7118 64.0341 19.5229L64.6542 18.6929C64.817 18.8817 65.0058 19.0282 65.2207 19.1323C65.4355 19.2397 65.6731 19.2935 65.9335 19.2935C66.1875 19.2935 66.4023 19.2463 66.5781 19.1519C66.7539 19.0607 66.8889 18.9256 66.9833 18.7466C67.0777 18.5708 67.125 18.3576 67.125 18.1069V14.2104L67.2617 12.9897ZM63.707 15.6948V15.5923C63.707 15.1886 63.7558 14.8224 63.8535 14.4937C63.9544 14.1616 64.096 13.8768 64.2783 13.6392C64.4638 13.4015 64.6884 13.2176 64.9521 13.0874C65.2158 12.9572 65.5136 12.8921 65.8457 12.8921C66.1972 12.8921 66.4918 12.9572 66.7294 13.0874C66.9671 13.2176 67.1624 13.4032 67.3154 13.644C67.4684 13.8817 67.5872 14.1632 67.6718 14.4888C67.7597 14.811 67.8281 15.1642 67.8769 15.5483V15.7729C67.8281 16.1408 67.7548 16.4826 67.6572 16.7983C67.5595 17.1141 67.4309 17.3908 67.2714 17.6284C67.1119 17.8628 66.9134 18.0451 66.6757 18.1753C66.4414 18.3055 66.1614 18.3706 65.8359 18.3706C65.5104 18.3706 65.2158 18.3039 64.9521 18.1704C64.6917 18.0369 64.4687 17.8498 64.2832 17.6089C64.0976 17.368 63.9544 17.0848 63.8535 16.7593C63.7558 16.4338 63.707 16.0789 63.707 15.6948ZM65.1132 15.5923V15.6948C65.1132 15.9129 65.1344 16.1164 65.1767 16.3052C65.219 16.494 65.2841 16.6616 65.372 16.8081C65.4632 16.9513 65.5755 17.0636 65.7089 17.145C65.8457 17.2231 66.0068 17.2622 66.1923 17.2622C66.4495 17.2622 66.6595 17.2085 66.8222 17.1011C66.985 16.9904 67.107 16.839 67.1884 16.647C67.2698 16.4549 67.317 16.2336 67.33 15.9829V15.3433C67.3235 15.1382 67.2958 14.9543 67.247 14.7915C67.1982 14.6255 67.1298 14.4839 67.0419 14.3667C66.9541 14.2495 66.8401 14.1584 66.7001 14.0933C66.5602 14.0282 66.3942 13.9956 66.2021 13.9956C66.0166 13.9956 65.8554 14.0379 65.7187 14.1226C65.5852 14.2039 65.4729 14.3162 65.3818 14.4595C65.2939 14.6027 65.2272 14.772 65.1816 14.9673C65.136 15.1593 65.1132 15.3677 65.1132 15.5923ZM27.3203 29.1304V30.2729H23.5361V29.1304H27.3203ZM24.0146 23.1636V30.2729H22.5498V23.1636H24.0146ZM26.8271 26.0591V27.1724H23.5361V26.0591H26.8271ZM27.3154 23.1636V24.311H23.5361V23.1636H27.3154ZM29.2197 24.9897L30.0937 26.5962L30.9921 24.9897H32.4912L30.997 27.5728L32.5595 30.2729H31.0556L30.1035 28.5737L29.1513 30.2729H27.6474L29.2099 27.5728L27.7158 24.9897H29.2197ZM34.581 26.0054V32.3042H33.1748V24.9897H34.4785L34.581 26.0054ZM37.9257 27.5728V27.6753C37.9257 28.0594 37.8802 28.4159 37.789 28.7446C37.7011 29.0734 37.5709 29.3599 37.3984 29.604C37.2259 29.8449 37.011 30.0337 36.7539 30.1704C36.5 30.3039 36.207 30.3706 35.875 30.3706C35.5527 30.3706 35.2727 30.3055 35.0351 30.1753C34.7975 30.0451 34.5973 29.8628 34.4345 29.6284C34.275 29.3908 34.1464 29.1157 34.0488 28.8032C33.9511 28.4907 33.8763 28.1554 33.8242 27.7974V27.5288C33.8763 27.1447 33.9511 26.7931 34.0488 26.4741C34.1464 26.1519 34.275 25.8735 34.4345 25.6392C34.5973 25.4015 34.7958 25.2176 35.0302 25.0874C35.2679 24.9572 35.5462 24.8921 35.8652 24.8921C36.2005 24.8921 36.4951 24.9556 36.749 25.0825C37.0061 25.2095 37.221 25.3918 37.3935 25.6294C37.5693 25.867 37.7011 26.1502 37.789 26.479C37.8802 26.8078 37.9257 27.1724 37.9257 27.5728ZM36.5146 27.6753V27.5728C36.5146 27.3481 36.4951 27.1414 36.456 26.9526C36.4202 26.7606 36.3616 26.5929 36.2802 26.4497C36.2021 26.3065 36.0979 26.1958 35.9677 26.1177C35.8408 26.0363 35.6861 25.9956 35.5039 25.9956C35.3118 25.9956 35.1474 26.0265 35.0107 26.0884C34.8772 26.1502 34.7682 26.2397 34.6835 26.3569C34.5989 26.4741 34.5354 26.6141 34.4931 26.7769C34.4508 26.9396 34.4248 27.1235 34.415 27.3286V28.0073C34.4313 28.2482 34.4768 28.4647 34.5517 28.6567C34.6266 28.8455 34.7421 28.9953 34.8984 29.106C35.0546 29.2166 35.2597 29.272 35.5136 29.272C35.6992 29.272 35.8554 29.2313 35.9824 29.1499C36.1093 29.0653 36.2119 28.9497 36.29 28.8032C36.3714 28.6567 36.4283 28.4875 36.4609 28.2954C36.4967 28.1034 36.5146 27.8966 36.5146 27.6753ZM41.2314 30.3706C40.8212 30.3706 40.4534 30.3055 40.1279 30.1753C39.8024 30.0418 39.5257 29.8579 39.2978 29.6235C39.0732 29.3892 38.9007 29.1174 38.7802 28.8081C38.6598 28.4956 38.5996 28.1636 38.5996 27.812V27.6167C38.5996 27.2163 38.6565 26.8501 38.7705 26.5181C38.8844 26.186 39.0472 25.8979 39.2587 25.6538C39.4736 25.4097 39.734 25.2225 40.04 25.0923C40.346 24.9588 40.691 24.8921 41.0751 24.8921C41.4495 24.8921 41.7815 24.9539 42.0712 25.0776C42.361 25.2013 42.6035 25.3771 42.7988 25.605C42.9973 25.8328 43.1471 26.1063 43.248 26.4253C43.3489 26.741 43.3994 27.0926 43.3994 27.48V28.0659H39.2001V27.1284H42.0175V27.021C42.0175 26.8257 41.9817 26.6515 41.9101 26.4985C41.8417 26.3423 41.7376 26.2186 41.5976 26.1274C41.4576 26.0363 41.2786 25.9907 41.0605 25.9907C40.875 25.9907 40.7154 26.0314 40.582 26.1128C40.4485 26.1942 40.3395 26.3081 40.2548 26.4546C40.1735 26.6011 40.1116 26.7736 40.0693 26.9722C40.0302 27.1675 40.0107 27.3823 40.0107 27.6167V27.812C40.0107 28.0236 40.04 28.2189 40.0986 28.3979C40.1604 28.577 40.2467 28.7316 40.3574 28.8618C40.4713 28.992 40.608 29.0929 40.7675 29.1646C40.9303 29.2362 41.1142 29.272 41.3193 29.272C41.5732 29.272 41.8092 29.2231 42.0273 29.1255C42.2486 29.0246 42.4391 28.8732 42.5986 28.6714L43.2822 29.4136C43.1715 29.5731 43.0201 29.7261 42.8281 29.8726C42.6393 30.019 42.4114 30.1395 42.1445 30.2339C41.8776 30.325 41.5732 30.3706 41.2314 30.3706ZM45.6064 26.1421V30.2729H44.2001V24.9897H45.5234L45.6064 26.1421ZM47.1982 24.9556L47.1738 26.2593C47.1054 26.2495 47.0224 26.2414 46.9248 26.2349C46.8304 26.2251 46.7441 26.2202 46.666 26.2202C46.4674 26.2202 46.2949 26.2463 46.1484 26.2983C46.0052 26.3472 45.8847 26.4204 45.7871 26.5181C45.6927 26.6157 45.621 26.7345 45.5722 26.8745C45.5266 27.0145 45.5006 27.174 45.4941 27.353L45.2109 27.2651C45.2109 26.9233 45.2451 26.6092 45.3134 26.3228C45.3818 26.033 45.4811 25.7808 45.6113 25.5659C45.7447 25.3511 45.9075 25.1851 46.0996 25.0679C46.2916 24.9507 46.5113 24.8921 46.7587 24.8921C46.8369 24.8921 46.9166 24.8986 46.998 24.9116C47.0794 24.9214 47.1461 24.936 47.1982 24.9556ZM50.6943 24.9897V25.9858H47.6181V24.9897H50.6943ZM48.3798 23.686H49.7861V28.6812C49.7861 28.8341 49.8056 28.9513 49.8447 29.0327C49.887 29.1141 49.9488 29.1711 50.0302 29.2036C50.1116 29.2329 50.2141 29.2476 50.3378 29.2476C50.4257 29.2476 50.5039 29.2443 50.5722 29.2378C50.6438 29.228 50.7041 29.2183 50.7529 29.2085L50.7578 30.2437C50.6373 30.2827 50.5071 30.3136 50.3671 30.3364C50.2272 30.3592 50.0725 30.3706 49.9033 30.3706C49.594 30.3706 49.3238 30.3201 49.0927 30.2192C48.8649 30.1151 48.6891 29.9491 48.5654 29.7212C48.4417 29.4933 48.3798 29.1938 48.3798 28.8228V23.686ZM54.3515 28.813C54.3515 28.7121 54.3222 28.6209 54.2636 28.5396C54.205 28.4582 54.096 28.3833 53.9365 28.3149C53.7802 28.2433 53.554 28.1782 53.2578 28.1196C52.9908 28.061 52.7418 27.9878 52.5107 27.8999C52.2828 27.8088 52.0843 27.6997 51.915 27.5728C51.749 27.4458 51.6188 27.2961 51.5244 27.1235C51.43 26.9478 51.3828 26.7476 51.3828 26.5229C51.3828 26.3016 51.43 26.0933 51.5244 25.8979C51.622 25.7026 51.7604 25.5301 51.9394 25.3804C52.1217 25.2274 52.343 25.1086 52.6035 25.0239C52.8671 24.936 53.1634 24.8921 53.4921 24.8921C53.9511 24.8921 54.345 24.9653 54.6738 25.1118C55.0058 25.2583 55.2597 25.4601 55.4355 25.7173C55.6145 25.9712 55.7041 26.2609 55.7041 26.5864H54.2978C54.2978 26.4497 54.2685 26.3276 54.2099 26.2202C54.1546 26.1095 54.0667 26.0233 53.9462 25.9614C53.8291 25.8963 53.6761 25.8638 53.4873 25.8638C53.331 25.8638 53.1959 25.8914 53.082 25.9468C52.968 25.9989 52.8802 26.0705 52.8183 26.1616C52.7597 26.2495 52.7304 26.3472 52.7304 26.4546C52.7304 26.536 52.7467 26.6092 52.7792 26.6743C52.8151 26.7362 52.872 26.7931 52.9501 26.8452C53.0283 26.8973 53.1292 26.9461 53.2529 26.9917C53.3798 27.034 53.5361 27.0731 53.7216 27.1089C54.1025 27.187 54.4427 27.2896 54.7421 27.4165C55.0416 27.5402 55.2792 27.7095 55.455 27.9243C55.6308 28.1359 55.7187 28.4142 55.7187 28.7593C55.7187 28.9937 55.6666 29.2085 55.5625 29.4038C55.4583 29.5991 55.3085 29.77 55.1132 29.9165C54.9179 30.0597 54.6835 30.172 54.4101 30.2534C54.1399 30.3315 53.8356 30.3706 53.497 30.3706C53.0055 30.3706 52.5888 30.2827 52.247 30.1069C51.9085 29.9312 51.6513 29.7082 51.4755 29.438C51.303 29.1646 51.2167 28.8846 51.2167 28.5981H52.5498C52.5563 28.7902 52.6051 28.9448 52.6962 29.062C52.7906 29.1792 52.9095 29.2638 53.0527 29.3159C53.1992 29.368 53.357 29.394 53.5263 29.394C53.7086 29.394 53.86 29.3696 53.9804 29.3208C54.1009 29.2687 54.192 29.2004 54.2539 29.1157C54.319 29.0278 54.3515 28.9269 54.3515 28.813Z" fill="black"/>
<ellipse cx="39.0833" cy="38.0303" rx="3.08333" ry="3.0303" fill="#852417"/>
</svg>
